%TF.GenerationSoftware,KiCad,Pcbnew,10.0.6*%
%TF.CreationDate,2026-10-09T21:29:11-04:00*%
%TF.ProjectId,schematic,73636865-6d61-4746-9963-2e6b69636164,rev?*%
%TF.SameCoordinates,Original*%
%TF.FileFunction,Copper,L1,Top*%
%TF.FilePolarity,Positive*%
%FSLAX46Y46*%
G04 Gerber Fmt 4.6, Leading zero omitted, Abs format (unit mm)*
G04 Created by KiCad (PCBNEW 10.0.6) date 2026-10-09 21:29:11*
%MOMM*%
%LPD*%
G01*
G04 APERTURE LIST*
G04 Aperture macros list*
%AMRoundRect*
0 Rectangle with rounded corners*
0 $1 Rounding radius*
0 $2 $3 $4 $5 $6 $7 $8 $9 X,Y pos of 4 corners*
0 Add a 4 corners polygon primitive as box body*
4,1,4,$2,$3,$4,$5,$6,$7,$8,$9,$2,$3,0*
0 Add four circle primitives for the rounded corners*
1,1,$1+$1,$2,$3*
1,1,$1+$1,$4,$5*
1,1,$1+$1,$6,$7*
1,1,$1+$1,$8,$9*
0 Add four rect primitives between the rounded corners*
20,1,$1+$1,$2,$3,$4,$5,0*
20,1,$1+$1,$4,$5,$6,$7,0*
20,1,$1+$1,$6,$7,$8,$9,0*
20,1,$1+$1,$8,$9,$2,$3,0*%
G04 Aperture macros list end*
%TA.AperFunction,ComponentPad*%
%ADD10C,2.200000*%
%TD*%
%TA.AperFunction,ComponentPad*%
%ADD11R,1.700000X1.700000*%
%TD*%
%TA.AperFunction,ComponentPad*%
%ADD12O,1.700000X1.700000*%
%TD*%
%TA.AperFunction,ComponentPad*%
%ADD13C,1.400000*%
%TD*%
%TA.AperFunction,ComponentPad*%
%ADD14R,1.500000X1.500000*%
%TD*%
%TA.AperFunction,ComponentPad*%
%ADD15C,1.500000*%
%TD*%
%TA.AperFunction,ComponentPad*%
%ADD16C,1.700000*%
%TD*%
%TA.AperFunction,SMDPad,CuDef*%
%ADD17RoundRect,0.152400X-0.609600X1.063600X-0.609600X-1.063600X0.609600X-1.063600X0.609600X1.063600X0*%
%TD*%
%TA.AperFunction,ComponentPad*%
%ADD18C,1.524000*%
%TD*%
%TA.AperFunction,SMDPad,CuDef*%
%ADD19RoundRect,0.152400X0.609600X-1.063600X0.609600X1.063600X-0.609600X1.063600X-0.609600X-1.063600X0*%
%TD*%
%TA.AperFunction,Conductor*%
%ADD20C,0.200000*%
%TD*%
G04 APERTURE END LIST*
D10*
%TO.P,SW1,1,1_1*%
%TO.N,/GPIO2*%
X143040000Y-104920000D03*
%TO.P,SW1,2,2_2*%
%TO.N,GND*%
X136690000Y-107460000D03*
%TD*%
D11*
%TO.P,J1,1,Pin_1_1*%
%TO.N,GND*%
X181190000Y-74492000D03*
D12*
%TO.P,J1,2,Pin_2_2*%
%TO.N,+3.3V*%
X183730000Y-74492000D03*
%TO.P,J1,3,Pin_3_3*%
%TO.N,/SCL*%
X186270000Y-74492000D03*
%TO.P,J1,4,Pin_4_4*%
%TO.N,/SDA*%
X188810000Y-74492000D03*
%TD*%
D13*
%TO.P,R1,1*%
%TO.N,+3.3V*%
X156190000Y-105000000D03*
%TO.P,R1,2*%
%TO.N,/DHT11 DATA*%
X163810000Y-105000000D03*
%TD*%
D10*
%TO.P,SW2,1,1_1*%
%TO.N,/GPIO3*%
X232040000Y-104920000D03*
%TO.P,SW2,2,2_2*%
%TO.N,GND*%
X225690000Y-107460000D03*
%TD*%
D14*
%TO.P,U2,1,VDD_1*%
%TO.N,+3.3V*%
X160000000Y-114960000D03*
D15*
%TO.P,U2,2,DATA_2*%
%TO.N,/DHT11 DATA*%
X160000000Y-117500000D03*
%TO.P,U2,3,NC_3*%
%TO.N,unconnected-(U2-NC-Pad3)*%
X160000000Y-120040000D03*
%TO.P,U2,4,GND_4*%
%TO.N,GND*%
X160000000Y-122580000D03*
%TD*%
D11*
%TO.P,J2,1,Pin_1_1*%
%TO.N,unconnected-(J2-Pin_1-Pad1)*%
X210000000Y-105800000D03*
D16*
%TO.P,J2,2,Pin_2_2*%
%TO.N,unconnected-(J2-Pin_2-Pad2)*%
X210000000Y-108340000D03*
%TO.P,J2,3,Pin_3_3*%
%TO.N,/SCL*%
X210000000Y-110880000D03*
%TO.P,J2,4,Pin_4_4*%
%TO.N,/SDA*%
X210000000Y-113420000D03*
%TO.P,J2,5,Pin_5_5*%
%TO.N,unconnected-(J2-Pin_5-Pad5)*%
X210000000Y-115960000D03*
%TO.P,J2,6,Pin_6_6*%
%TO.N,unconnected-(J2-Pin_6-Pad6)*%
X210000000Y-118500000D03*
%TO.P,J2,7,Pin_7_7*%
%TO.N,unconnected-(J2-Pin_7-Pad7)*%
X210000000Y-121040000D03*
%TO.P,J2,8,Pin_8_8*%
%TO.N,unconnected-(J2-Pin_8-Pad8)*%
X210000000Y-123580000D03*
%TD*%
D17*
%TO.P,U1,1,D0_1*%
%TO.N,unconnected-(U1-D0-Pad1)_1*%
X177380000Y-124455000D03*
D18*
%TO.N,unconnected-(U1-D0-Pad1)*%
X177380000Y-123620000D03*
D17*
%TO.P,U1,2,D1_2*%
%TO.N,/DHT11 DATA*%
X179920000Y-124455000D03*
D18*
X179920000Y-123620000D03*
D17*
%TO.P,U1,3,D2_3*%
%TO.N,/GPIO2*%
X182460000Y-124455000D03*
D18*
X182460000Y-123620000D03*
D17*
%TO.P,U1,4,D3_4*%
%TO.N,/GPIO3*%
X185000000Y-124455000D03*
D18*
X185000000Y-123620000D03*
D17*
%TO.P,U1,5,D4_5*%
%TO.N,/SCL*%
X187540000Y-124455000D03*
D18*
X187540000Y-123620000D03*
D17*
%TO.P,U1,6,D5_6*%
%TO.N,/SDA*%
X190080000Y-124455000D03*
D18*
X190080000Y-123620000D03*
D17*
%TO.P,U1,7,D6_7*%
%TO.N,unconnected-(U1-D6-Pad7)_1*%
X192620000Y-124455000D03*
D18*
%TO.N,unconnected-(U1-D6-Pad7)*%
X192620000Y-123620000D03*
%TO.P,U1,8,D7_8*%
%TO.N,unconnected-(U1-D7-Pad8)_1*%
X192620000Y-108380000D03*
D19*
%TO.N,unconnected-(U1-D7-Pad8)*%
X192620000Y-107545000D03*
D18*
%TO.P,U1,9,D8_9*%
%TO.N,unconnected-(U1-D8-Pad9)*%
X190080000Y-108380000D03*
D19*
%TO.N,unconnected-(U1-D8-Pad9)_1*%
X190080000Y-107545000D03*
D18*
%TO.P,U1,10,D9/BOOT_10*%
%TO.N,unconnected-(U1-D9{slash}BOOT-Pad10)_1*%
X187540000Y-108380000D03*
D19*
%TO.N,unconnected-(U1-D9{slash}BOOT-Pad10)*%
X187540000Y-107545000D03*
D18*
%TO.P,U1,11,D10_11*%
%TO.N,unconnected-(U1-D10-Pad11)_1*%
X185000000Y-108380000D03*
D19*
%TO.N,unconnected-(U1-D10-Pad11)*%
X185000000Y-107545000D03*
D18*
%TO.P,U1,12,3V3_OUT_12*%
%TO.N,+3.3V*%
X182460000Y-108380000D03*
D19*
X182460000Y-107545000D03*
D18*
%TO.P,U1,13,GND_13*%
%TO.N,GND*%
X179920000Y-108380000D03*
D19*
X179920000Y-107545000D03*
D18*
%TO.P,U1,14,VBUS_14*%
%TO.N,+5V*%
X177380000Y-108380000D03*
D19*
X177380000Y-107545000D03*
%TD*%
%TO.N,/GPIO2*%
D20*
X130500000Y-119000000D02*
X130500000Y-104500000D01*
X151500000Y-119000000D02*
X130500000Y-119000000D01*
X152500000Y-120000000D02*
X151500000Y-119000000D01*
X157331665Y-127500000D02*
X153525128Y-124962308D01*
X140120000Y-102000000D02*
X143040000Y-104920000D01*
X130500000Y-104500000D02*
X133000000Y-102000000D01*
X179657630Y-127500000D02*
X157331665Y-127500000D01*
X153525128Y-124962308D02*
X152500000Y-123937180D01*
X182460000Y-123620000D02*
X182460000Y-124697630D01*
X133000000Y-102000000D02*
X140120000Y-102000000D01*
X182460000Y-124697630D02*
X179657630Y-127500000D01*
X152500000Y-123937180D02*
X152500000Y-120000000D01*
%TO.N,GND*%
X152500000Y-118000000D02*
X139500000Y-118000000D01*
X215000000Y-84500000D02*
X201500000Y-71000000D01*
X152500000Y-115080000D02*
X160000000Y-122580000D01*
X177500000Y-76500000D02*
X177500000Y-92500000D01*
X136690000Y-115190000D02*
X136690000Y-107460000D01*
X165500000Y-101500000D02*
X154000000Y-101500000D01*
X179508000Y-74492000D02*
X177500000Y-76500000D01*
X154000000Y-101500000D02*
X152500000Y-103000000D01*
X157080000Y-122580000D02*
X152500000Y-118000000D01*
X167000000Y-113500000D02*
X167000000Y-103000000D01*
X167000000Y-103000000D02*
X165500000Y-101500000D01*
X201500000Y-71000000D02*
X184682000Y-71000000D01*
X225690000Y-107460000D02*
X215000000Y-96770000D01*
X215000000Y-96770000D02*
X215000000Y-84500000D01*
X139500000Y-118000000D02*
X136690000Y-115190000D01*
X181190000Y-74492000D02*
X179508000Y-74492000D01*
X160000000Y-122580000D02*
X157080000Y-122580000D01*
X174800000Y-113500000D02*
X167000000Y-113500000D01*
X177500000Y-92500000D02*
X179920000Y-94920000D01*
X152500000Y-103000000D02*
X152500000Y-115080000D01*
X179920000Y-94920000D02*
X179920000Y-108380000D01*
X179920000Y-108380000D02*
X174800000Y-113500000D01*
X184682000Y-71000000D02*
X181190000Y-74492000D01*
%TO.N,+3.3V*%
X160000000Y-114960000D02*
X158960000Y-114960000D01*
X158960000Y-114960000D02*
X154000000Y-110000000D01*
X165500000Y-114500000D02*
X179500000Y-114500000D01*
X182460000Y-75762000D02*
X183730000Y-74492000D01*
X165500000Y-104000000D02*
X165500000Y-114500000D01*
X163000000Y-102500000D02*
X164000000Y-102500000D01*
X182460000Y-111540000D02*
X182460000Y-108380000D01*
X154500000Y-105000000D02*
X156190000Y-105000000D01*
X179500000Y-114500000D02*
X182460000Y-111540000D01*
X160000000Y-111000000D02*
X161000000Y-110000000D01*
X161000000Y-110000000D02*
X161000000Y-104500000D01*
X164000000Y-102500000D02*
X165500000Y-104000000D01*
X182460000Y-108380000D02*
X182460000Y-75762000D01*
X154000000Y-110000000D02*
X154000000Y-105500000D01*
X161000000Y-104500000D02*
X163000000Y-102500000D01*
X160000000Y-114960000D02*
X160000000Y-111000000D01*
X154000000Y-105500000D02*
X154500000Y-105000000D01*
%TO.N,/SCL*%
X208380000Y-112500000D02*
X210000000Y-110880000D01*
X189000000Y-98500000D02*
X196500000Y-106000000D01*
X205120000Y-106000000D02*
X210000000Y-110880000D01*
X186270000Y-74492000D02*
X189000000Y-77222000D01*
X193500000Y-121500000D02*
X193500000Y-117500000D01*
X188000000Y-121500000D02*
X193500000Y-121500000D01*
X187540000Y-121960000D02*
X188000000Y-121500000D01*
X196500000Y-106000000D02*
X205120000Y-106000000D01*
X193500000Y-117500000D02*
X198500000Y-112500000D01*
X187540000Y-123620000D02*
X187540000Y-121960000D01*
X189000000Y-77222000D02*
X189000000Y-98500000D01*
X198500000Y-112500000D02*
X208380000Y-112500000D01*
%TO.N,/SDA*%
X190080000Y-125580000D02*
X191000000Y-126500000D01*
X188810000Y-74492000D02*
X190802000Y-72500000D01*
X191000000Y-126500000D02*
X196500000Y-126500000D01*
X199080000Y-113420000D02*
X199920000Y-113420000D01*
X199500000Y-72500000D02*
X212000000Y-85000000D01*
X212000000Y-85000000D02*
X212000000Y-115586346D01*
X196500000Y-126500000D02*
X196500000Y-116000000D01*
X203610000Y-117110000D02*
X199920000Y-113420000D01*
X199920000Y-113420000D02*
X210000000Y-113420000D01*
X190080000Y-123620000D02*
X190080000Y-125580000D01*
X212000000Y-115586346D02*
X210476346Y-117110000D01*
X190802000Y-72500000D02*
X199500000Y-72500000D01*
X210476346Y-117110000D02*
X203610000Y-117110000D01*
X196500000Y-116000000D02*
X199080000Y-113420000D01*
%TO.N,/DHT11 DATA*%
X163810000Y-113690000D02*
X160000000Y-117500000D01*
X177500000Y-127000000D02*
X173000000Y-127000000D01*
X171500000Y-125500000D02*
X171500000Y-119000000D01*
X170000000Y-117500000D02*
X160000000Y-117500000D01*
X179920000Y-124580000D02*
X177500000Y-127000000D01*
X171500000Y-119000000D02*
X170000000Y-117500000D01*
X179920000Y-123620000D02*
X179920000Y-124580000D01*
X163810000Y-105000000D02*
X163810000Y-113690000D01*
X173000000Y-127000000D02*
X171500000Y-125500000D01*
%TO.N,/GPIO3*%
X187302370Y-127000000D02*
X212000000Y-127000000D01*
X213500000Y-125500000D02*
X213500000Y-114000000D01*
X185000000Y-124697630D02*
X187302370Y-127000000D01*
X213500000Y-114000000D02*
X214000000Y-113500000D01*
X230500000Y-113500000D02*
X232040000Y-111960000D01*
X232040000Y-111960000D02*
X232040000Y-104920000D01*
X214000000Y-113500000D02*
X230500000Y-113500000D01*
X212000000Y-127000000D02*
X213500000Y-125500000D01*
X185000000Y-123620000D02*
X185000000Y-124697630D01*
%TD*%
%TA.AperFunction,Conductor*%
%TO.N,GND*%
G36*
X185584779Y-65505491D02*
G01*
X186745278Y-65544709D01*
X186749451Y-65544920D01*
X187908023Y-65623314D01*
X187912091Y-65623658D01*
X189038261Y-65738178D01*
X189067363Y-65741138D01*
X189071524Y-65741632D01*
X190222137Y-65898058D01*
X190226253Y-65898690D01*
X191370908Y-66093885D01*
X191374955Y-66094645D01*
X192512437Y-66328403D01*
X192516502Y-66329311D01*
X193645401Y-66601344D01*
X193649360Y-66602369D01*
X194768440Y-66912378D01*
X194772424Y-66913555D01*
X195880370Y-67261175D01*
X195884313Y-67262485D01*
X196979920Y-67647339D01*
X196983782Y-67648770D01*
X197822129Y-67975464D01*
X198065721Y-68070390D01*
X198069597Y-68071976D01*
X199136723Y-68529916D01*
X199140454Y-68531592D01*
X200191473Y-69025297D01*
X200195227Y-69027138D01*
X201228991Y-69556068D01*
X201232620Y-69558003D01*
X202247943Y-70121554D01*
X202251519Y-70123618D01*
X203047454Y-70601254D01*
X203247201Y-70721121D01*
X203250754Y-70723336D01*
X204225694Y-71354131D01*
X204229101Y-71356418D01*
X205181747Y-72019479D01*
X205182187Y-72019785D01*
X205185584Y-72022236D01*
X206115678Y-72717382D01*
X206118977Y-72719936D01*
X206967424Y-73399906D01*
X207025064Y-73446100D01*
X207028279Y-73448767D01*
X207909342Y-74205134D01*
X207912474Y-74207916D01*
X208765737Y-74992000D01*
X208767457Y-74993580D01*
X208770486Y-74996458D01*
X209598519Y-75810623D01*
X209601410Y-75813564D01*
X210319310Y-76568794D01*
X210401424Y-76655178D01*
X210404258Y-76658262D01*
X210975217Y-77301057D01*
X211175373Y-77526395D01*
X211178102Y-77529573D01*
X211919490Y-78423297D01*
X211922109Y-78426566D01*
X212632847Y-79344764D01*
X212635355Y-79348119D01*
X213314701Y-80289831D01*
X213317094Y-80293269D01*
X213964241Y-81257380D01*
X213966508Y-81260885D01*
X214161551Y-81573802D01*
X214580741Y-82246329D01*
X214582896Y-82249921D01*
X215163468Y-83255501D01*
X215165499Y-83259160D01*
X215357839Y-83619919D01*
X215711795Y-84283808D01*
X215713695Y-84287522D01*
X216106869Y-85089060D01*
X216225073Y-85330035D01*
X216226854Y-85333826D01*
X216702734Y-86393027D01*
X216704385Y-86396876D01*
X217144204Y-87471503D01*
X217145725Y-87475406D01*
X217549006Y-88564301D01*
X217550394Y-88568253D01*
X217916664Y-89670127D01*
X217917918Y-89674124D01*
X218246764Y-90787742D01*
X218247883Y-90791778D01*
X218538939Y-91915902D01*
X218539920Y-91919974D01*
X218792837Y-93053262D01*
X218793680Y-93057365D01*
X219008178Y-94198547D01*
X219008882Y-94202676D01*
X219184716Y-95350457D01*
X219185280Y-95354607D01*
X219322246Y-96507655D01*
X219322670Y-96511823D01*
X219420615Y-97668854D01*
X219420898Y-97673032D01*
X219479712Y-98832731D01*
X219479853Y-98836918D01*
X219499482Y-99998934D01*
X219499500Y-100001028D01*
X219499500Y-100065891D01*
X219533608Y-100193187D01*
X219566554Y-100250250D01*
X219599500Y-100307314D01*
X219692686Y-100400500D01*
X219806814Y-100466392D01*
X219934108Y-100500500D01*
X239810917Y-100500500D01*
X239877956Y-100520185D01*
X239879700Y-100521326D01*
X241258346Y-101440423D01*
X241258349Y-101440425D01*
X241301750Y-101469359D01*
X241301753Y-101469361D01*
X241376930Y-101519479D01*
X241376933Y-101519481D01*
X242008346Y-101940423D01*
X242008349Y-101940425D01*
X242051750Y-101969359D01*
X242051753Y-101969361D01*
X242126930Y-102019479D01*
X242126933Y-102019481D01*
X242305244Y-102138355D01*
X243027989Y-102620185D01*
X243052940Y-102636819D01*
X243777989Y-103120185D01*
X243802940Y-103136819D01*
X244227839Y-103420085D01*
X244370420Y-103515139D01*
X244646519Y-103699205D01*
X244666088Y-103712251D01*
X244750025Y-103768209D01*
X244841300Y-103829059D01*
X244946957Y-103899497D01*
X245219444Y-104081155D01*
X245424599Y-104217925D01*
X245470814Y-104248735D01*
X245500025Y-104268209D01*
X245545310Y-104298399D01*
X245556143Y-104305621D01*
X245642324Y-104363075D01*
X245653913Y-104370801D01*
X245729126Y-104420943D01*
X245729129Y-104420945D01*
X245758346Y-104440423D01*
X245781575Y-104455909D01*
X245876924Y-104519475D01*
X245876933Y-104519481D01*
X245906456Y-104539163D01*
X245915531Y-104545213D01*
X245930912Y-104555467D01*
X245966297Y-104579057D01*
X245986394Y-104592455D01*
X246159215Y-104707669D01*
X246159218Y-104707671D01*
X246176033Y-104718881D01*
X246220814Y-104748735D01*
X246361487Y-104842517D01*
X246450914Y-104902135D01*
X246455981Y-104905513D01*
X246455990Y-104905519D01*
X246916949Y-105212825D01*
X246916952Y-105212827D01*
X247000031Y-105268213D01*
X247000034Y-105268215D01*
X247142483Y-105363181D01*
X247229126Y-105420943D01*
X247229129Y-105420945D01*
X247376924Y-105519475D01*
X247376933Y-105519481D01*
X247399286Y-105534383D01*
X247466297Y-105579057D01*
X247481300Y-105589059D01*
X247527989Y-105620185D01*
X247555244Y-105638355D01*
X247659665Y-105707969D01*
X247723382Y-105750447D01*
X247770821Y-105782073D01*
X247828856Y-105820763D01*
X247844831Y-105831413D01*
X247913864Y-105877435D01*
X247914557Y-105877897D01*
X247945880Y-105898779D01*
X247959149Y-105907625D01*
X247971242Y-105915687D01*
X248039819Y-105961405D01*
X248040416Y-105961803D01*
X248041685Y-105962649D01*
X248063540Y-105977219D01*
X248113421Y-106010473D01*
X248214782Y-106078047D01*
X248214791Y-106078053D01*
X248215262Y-106078367D01*
X248235047Y-106091557D01*
X248263898Y-106110791D01*
X248266529Y-106112545D01*
X248300942Y-106135487D01*
X248308901Y-106140793D01*
X248371730Y-106182679D01*
X248427779Y-106220045D01*
X248665382Y-106378447D01*
X248665391Y-106378453D01*
X248702570Y-106403239D01*
X249029831Y-106621413D01*
X249052940Y-106636819D01*
X249144521Y-106697873D01*
X249366434Y-106845815D01*
X249413867Y-106877437D01*
X249609032Y-107007547D01*
X249616169Y-107012305D01*
X249675926Y-107052143D01*
X249738407Y-107093797D01*
X249823460Y-107150499D01*
X249972929Y-107250145D01*
X250098818Y-107334071D01*
X250117721Y-107346673D01*
X250287710Y-107459999D01*
X250288031Y-107460213D01*
X250288034Y-107460215D01*
X250398515Y-107533869D01*
X250615862Y-107678767D01*
X250631447Y-107689157D01*
X250779722Y-107788007D01*
X251133347Y-108023757D01*
X251161556Y-108042563D01*
X251448281Y-108233713D01*
X251545574Y-108298575D01*
X251545583Y-108298581D01*
X251669066Y-108380903D01*
X251698757Y-108400697D01*
X251767142Y-108446287D01*
X251853173Y-108503641D01*
X251867150Y-108512959D01*
X251909135Y-108540949D01*
X252082076Y-108656243D01*
X252272885Y-108783449D01*
X252385178Y-108858311D01*
X252402647Y-108869957D01*
X252402650Y-108869959D01*
X252439937Y-108894817D01*
X252450086Y-108901583D01*
X252473093Y-108916921D01*
X252479168Y-108920971D01*
X252538715Y-108960669D01*
X252567902Y-108980127D01*
X252601451Y-109002493D01*
X252615170Y-109011639D01*
X252615623Y-109011941D01*
X252615626Y-109011943D01*
X252615629Y-109011945D01*
X252626474Y-109019175D01*
X252669437Y-109047817D01*
X252724544Y-109084555D01*
X252759923Y-109108141D01*
X252782120Y-109122939D01*
X253152875Y-109370109D01*
X253232528Y-109423211D01*
X253246115Y-109432269D01*
X253287392Y-109459787D01*
X253287395Y-109459789D01*
X253347248Y-109499691D01*
X253422719Y-109550005D01*
X253464044Y-109577555D01*
X253527875Y-109620109D01*
X253540376Y-109628443D01*
X253565747Y-109645357D01*
X253676360Y-109719099D01*
X253685135Y-109724949D01*
X253685138Y-109724951D01*
X253687103Y-109726261D01*
X253721558Y-109749231D01*
X253748123Y-109766941D01*
X253853558Y-109837231D01*
X253942950Y-109896826D01*
X253987811Y-109950391D01*
X253996591Y-110019707D01*
X253966502Y-110082766D01*
X253942950Y-110103174D01*
X253902998Y-110129809D01*
X253876463Y-110147499D01*
X253853558Y-110162769D01*
X253793987Y-110202483D01*
X253750034Y-110231785D01*
X253750031Y-110231787D01*
X253676360Y-110280901D01*
X253639673Y-110305359D01*
X253544636Y-110368717D01*
X253527875Y-110379891D01*
X253464044Y-110422445D01*
X253464041Y-110422447D01*
X253437722Y-110439993D01*
X253412513Y-110456799D01*
X253252076Y-110563757D01*
X253010285Y-110724951D01*
X253010270Y-110724961D01*
X252945389Y-110768215D01*
X252937142Y-110773713D01*
X252716297Y-110920943D01*
X252716294Y-110920945D01*
X252567905Y-111019871D01*
X252479126Y-111079057D01*
X252224609Y-111248735D01*
X252147566Y-111300097D01*
X252131525Y-111310791D01*
X251970938Y-111417849D01*
X251867141Y-111487047D01*
X251715986Y-111587817D01*
X251669129Y-111619055D01*
X251669126Y-111619057D01*
X251607857Y-111659903D01*
X251554250Y-111695641D01*
X251554241Y-111695647D01*
X251440034Y-111771785D01*
X251364839Y-111821915D01*
X251302940Y-111863181D01*
X251248463Y-111899499D01*
X251232548Y-111910109D01*
X251187077Y-111940423D01*
X251187074Y-111940425D01*
X251143673Y-111969359D01*
X251143670Y-111969361D01*
X251068493Y-112019479D01*
X251063600Y-112022741D01*
X251063597Y-112022743D01*
X251063594Y-112022745D01*
X251045135Y-112035051D01*
X250900376Y-112131557D01*
X250845047Y-112168443D01*
X250810034Y-112191785D01*
X250779725Y-112211991D01*
X250779722Y-112211993D01*
X250721963Y-112250499D01*
X250700288Y-112264949D01*
X250700285Y-112264951D01*
X250287392Y-112540213D01*
X249983987Y-112742483D01*
X249802940Y-112863181D01*
X249568499Y-113019475D01*
X249012860Y-113389901D01*
X248808281Y-113526287D01*
X248692718Y-113603329D01*
X248692691Y-113603347D01*
X248650784Y-113631285D01*
X248562989Y-113689815D01*
X248523848Y-113715909D01*
X248493347Y-113736243D01*
X248445392Y-113768213D01*
X248444129Y-113769055D01*
X248444126Y-113769057D01*
X248319029Y-113852455D01*
X248309960Y-113858501D01*
X248309945Y-113858511D01*
X248294642Y-113868713D01*
X248216297Y-113920943D01*
X248146208Y-113967669D01*
X248066963Y-114020499D01*
X248029862Y-114045233D01*
X248012483Y-114056819D01*
X248009636Y-114058717D01*
X248008349Y-114059575D01*
X247965404Y-114088205D01*
X247964123Y-114089059D01*
X247920830Y-114117921D01*
X247905989Y-114127815D01*
X247905986Y-114127817D01*
X247854527Y-114162123D01*
X247854518Y-114162129D01*
X247850879Y-114164555D01*
X247749440Y-114232181D01*
X247724609Y-114248735D01*
X247422548Y-114450109D01*
X247235135Y-114575051D01*
X247229126Y-114579057D01*
X247156475Y-114627491D01*
X247090376Y-114671557D01*
X246955541Y-114761447D01*
X246890288Y-114804949D01*
X246890285Y-114804951D01*
X246809960Y-114858501D01*
X246809945Y-114858511D01*
X246508352Y-115059573D01*
X246508349Y-115059575D01*
X246477392Y-115080213D01*
X246446963Y-115100499D01*
X246446960Y-115100501D01*
X246173987Y-115282483D01*
X246104642Y-115328713D01*
X246091295Y-115337611D01*
X245935334Y-115441585D01*
X245853611Y-115496067D01*
X245818346Y-115519577D01*
X245692529Y-115603455D01*
X245599610Y-115665401D01*
X245599607Y-115665403D01*
X245460908Y-115757869D01*
X245370515Y-115818131D01*
X245317142Y-115853713D01*
X245306963Y-115860499D01*
X245306960Y-115860501D01*
X244996391Y-116067547D01*
X244979126Y-116079057D01*
X244898339Y-116132915D01*
X244867016Y-116153797D01*
X244724609Y-116248735D01*
X244724066Y-116249097D01*
X244677275Y-116280291D01*
X244647566Y-116300097D01*
X244472177Y-116417023D01*
X244387940Y-116473181D01*
X244065983Y-116687819D01*
X243960932Y-116757853D01*
X243568499Y-117019475D01*
X243568490Y-117019481D01*
X243567749Y-117019975D01*
X243400784Y-117131285D01*
X243390179Y-117138355D01*
X243323582Y-117182753D01*
X243323579Y-117182755D01*
X243195392Y-117268213D01*
X243195389Y-117268215D01*
X242995346Y-117401577D01*
X242966297Y-117420943D01*
X242879642Y-117478713D01*
X242828447Y-117512843D01*
X242729126Y-117579057D01*
X242714123Y-117589059D01*
X242700086Y-117598417D01*
X242696927Y-117600523D01*
X242667392Y-117620213D01*
X242593349Y-117669575D01*
X242502434Y-117730185D01*
X242474609Y-117748735D01*
X242423228Y-117782989D01*
X242409443Y-117792179D01*
X242397566Y-117800097D01*
X242261519Y-117890795D01*
X241917434Y-118120185D01*
X241892483Y-118136819D01*
X241822076Y-118183757D01*
X241527989Y-118379815D01*
X241507142Y-118393713D01*
X241437077Y-118440423D01*
X241416974Y-118453825D01*
X241325003Y-118515139D01*
X241324988Y-118515149D01*
X241318493Y-118519479D01*
X241318490Y-118519481D01*
X241243427Y-118569523D01*
X241243424Y-118569525D01*
X241049879Y-118698555D01*
X240945398Y-118768209D01*
X240848945Y-118832511D01*
X240776984Y-118880485D01*
X240716297Y-118920943D01*
X240479126Y-119079057D01*
X240291467Y-119204163D01*
X240288566Y-119206097D01*
X240187103Y-119273739D01*
X240147566Y-119300097D01*
X239879700Y-119478674D01*
X239813001Y-119499482D01*
X239810917Y-119499500D01*
X225061837Y-119499500D01*
X225037519Y-119497092D01*
X225033544Y-119496297D01*
X225033543Y-119496296D01*
X224987861Y-119499243D01*
X224979881Y-119499500D01*
X224934104Y-119499500D01*
X224930177Y-119500552D01*
X224906096Y-119504515D01*
X224902034Y-119504777D01*
X224902029Y-119504778D01*
X224858673Y-119519445D01*
X224851036Y-119521758D01*
X224806816Y-119533607D01*
X224806806Y-119533611D01*
X224803280Y-119535647D01*
X224781055Y-119545702D01*
X224777207Y-119547004D01*
X224777200Y-119547007D01*
X224739121Y-119572393D01*
X224732343Y-119576602D01*
X224692688Y-119599498D01*
X224692680Y-119599503D01*
X224689809Y-119602375D01*
X224670921Y-119617858D01*
X209879700Y-129478674D01*
X209813001Y-129499482D01*
X209810917Y-129499500D01*
X160189083Y-129499500D01*
X160122044Y-129479815D01*
X160120300Y-129478674D01*
X158393800Y-128327674D01*
X158348939Y-128274109D01*
X158340159Y-128204793D01*
X158370248Y-128141734D01*
X158429652Y-128104953D01*
X158462583Y-128100500D01*
X179570961Y-128100500D01*
X179570977Y-128100501D01*
X179578573Y-128100501D01*
X179736684Y-128100501D01*
X179736687Y-128100501D01*
X179889415Y-128059577D01*
X179939534Y-128030639D01*
X180026346Y-127980520D01*
X180138150Y-127868716D01*
X180138150Y-127868714D01*
X180148358Y-127858507D01*
X180148359Y-127858504D01*
X181799047Y-126207819D01*
X181860370Y-126174334D01*
X181886728Y-126171500D01*
X183135526Y-126171500D01*
X183135534Y-126171500D01*
X183172548Y-126168587D01*
X183172550Y-126168586D01*
X183172552Y-126168586D01*
X183214413Y-126156424D01*
X183330959Y-126122564D01*
X183472947Y-126038592D01*
X183589592Y-125921947D01*
X183623268Y-125865003D01*
X183674337Y-125817321D01*
X183743079Y-125804817D01*
X183807668Y-125831462D01*
X183836732Y-125865004D01*
X183870406Y-125921944D01*
X183870412Y-125921952D01*
X183987047Y-126038587D01*
X183987051Y-126038590D01*
X183987053Y-126038592D01*
X184129041Y-126122564D01*
X184170816Y-126134701D01*
X184287447Y-126168586D01*
X184287450Y-126168586D01*
X184287452Y-126168587D01*
X184324466Y-126171500D01*
X185573273Y-126171500D01*
X185640312Y-126191185D01*
X185660954Y-126207819D01*
X186817509Y-127364374D01*
X186817519Y-127364385D01*
X186821849Y-127368715D01*
X186821850Y-127368716D01*
X186933654Y-127480520D01*
X187020465Y-127530639D01*
X187020467Y-127530641D01*
X187058521Y-127552611D01*
X187070585Y-127559577D01*
X187223313Y-127600501D01*
X187223316Y-127600501D01*
X187389023Y-127600501D01*
X187389039Y-127600500D01*
X211913331Y-127600500D01*
X211913347Y-127600501D01*
X211920943Y-127600501D01*
X212079054Y-127600501D01*
X212079057Y-127600501D01*
X212231785Y-127559577D01*
X212281904Y-127530639D01*
X212368716Y-127480520D01*
X212480520Y-127368716D01*
X212480520Y-127368714D01*
X212490728Y-127358507D01*
X212490730Y-127358504D01*
X213858506Y-125990728D01*
X213858511Y-125990724D01*
X213868714Y-125980520D01*
X213868716Y-125980520D01*
X213980520Y-125868716D01*
X214059577Y-125731784D01*
X214089534Y-125619981D01*
X214100500Y-125579058D01*
X214100500Y-125420943D01*
X214100500Y-114300098D01*
X214120185Y-114233059D01*
X214136819Y-114212416D01*
X214212418Y-114136818D01*
X214273742Y-114103334D01*
X214300099Y-114100500D01*
X230413331Y-114100500D01*
X230413347Y-114100501D01*
X230420943Y-114100501D01*
X230579054Y-114100501D01*
X230579057Y-114100501D01*
X230731785Y-114059577D01*
X230799468Y-114020500D01*
X230868716Y-113980520D01*
X230980520Y-113868716D01*
X230980520Y-113868714D01*
X230990724Y-113858511D01*
X230990728Y-113858506D01*
X232398506Y-112450728D01*
X232398511Y-112450724D01*
X232408714Y-112440520D01*
X232408716Y-112440520D01*
X232520520Y-112328716D01*
X232577225Y-112230500D01*
X232599577Y-112191785D01*
X232640501Y-112039057D01*
X232640501Y-111880943D01*
X232640501Y-111873348D01*
X232640500Y-111873330D01*
X232640500Y-109913389D01*
X233479500Y-109913389D01*
X233479500Y-110086610D01*
X233504145Y-110242218D01*
X233506598Y-110257701D01*
X233560127Y-110422445D01*
X233638768Y-110576788D01*
X233740586Y-110716928D01*
X233863072Y-110839414D01*
X234003212Y-110941232D01*
X234157555Y-111019873D01*
X234322299Y-111073402D01*
X234493389Y-111100500D01*
X234493390Y-111100500D01*
X234666610Y-111100500D01*
X234666611Y-111100500D01*
X234837701Y-111073402D01*
X235002445Y-111019873D01*
X235156788Y-110941232D01*
X235296928Y-110839414D01*
X235419414Y-110716928D01*
X235521232Y-110576788D01*
X235599873Y-110422445D01*
X235653402Y-110257701D01*
X235680500Y-110086611D01*
X235680500Y-109913389D01*
X235653402Y-109742299D01*
X235599873Y-109577555D01*
X235521232Y-109423212D01*
X235419414Y-109283072D01*
X235296928Y-109160586D01*
X235156788Y-109058768D01*
X235002445Y-108980127D01*
X234837701Y-108926598D01*
X234837699Y-108926597D01*
X234837698Y-108926597D01*
X234706271Y-108905781D01*
X234666611Y-108899500D01*
X234493389Y-108899500D01*
X234453728Y-108905781D01*
X234322302Y-108926597D01*
X234157552Y-108980128D01*
X234003211Y-109058768D01*
X233968981Y-109083638D01*
X233863072Y-109160586D01*
X233863070Y-109160588D01*
X233863069Y-109160588D01*
X233740588Y-109283069D01*
X233740588Y-109283070D01*
X233740586Y-109283072D01*
X233697062Y-109342978D01*
X233638768Y-109423211D01*
X233560128Y-109577552D01*
X233506597Y-109742302D01*
X233479500Y-109913389D01*
X232640500Y-109913389D01*
X232640500Y-106486300D01*
X232660185Y-106419261D01*
X232708204Y-106375815D01*
X232878845Y-106288870D01*
X233082656Y-106140793D01*
X233260793Y-105962656D01*
X233408870Y-105758845D01*
X233523241Y-105534379D01*
X233601090Y-105294785D01*
X233640500Y-105045962D01*
X233640500Y-104794038D01*
X233601090Y-104545215D01*
X233523241Y-104305621D01*
X233523239Y-104305618D01*
X233523239Y-104305616D01*
X233434412Y-104131285D01*
X233408870Y-104081155D01*
X233364059Y-104019478D01*
X233260798Y-103877350D01*
X233260794Y-103877345D01*
X233082654Y-103699205D01*
X233082649Y-103699201D01*
X232878848Y-103551132D01*
X232878847Y-103551131D01*
X232878845Y-103551130D01*
X232808209Y-103515139D01*
X232654383Y-103436760D01*
X232414785Y-103358910D01*
X232165962Y-103319500D01*
X231914038Y-103319500D01*
X231789626Y-103339205D01*
X231665214Y-103358910D01*
X231425616Y-103436760D01*
X231201151Y-103551132D01*
X230997350Y-103699201D01*
X230997345Y-103699205D01*
X230819205Y-103877345D01*
X230819201Y-103877350D01*
X230671132Y-104081151D01*
X230556760Y-104305616D01*
X230478910Y-104545214D01*
X230439500Y-104794038D01*
X230439500Y-105045961D01*
X230478910Y-105294785D01*
X230556760Y-105534383D01*
X230609737Y-105638355D01*
X230657991Y-105733059D01*
X230671132Y-105758848D01*
X230819201Y-105962649D01*
X230819205Y-105962654D01*
X230997345Y-106140794D01*
X230997350Y-106140798D01*
X231106421Y-106220042D01*
X231201155Y-106288870D01*
X231371795Y-106375815D01*
X231422591Y-106423789D01*
X231439500Y-106486300D01*
X231439500Y-108465461D01*
X231419815Y-108532500D01*
X231367011Y-108578255D01*
X231297853Y-108588199D01*
X231234297Y-108559174D01*
X231217125Y-108540949D01*
X231195644Y-108512955D01*
X230987047Y-108304358D01*
X230987040Y-108304352D01*
X230752993Y-108124761D01*
X230497510Y-107977258D01*
X230497500Y-107977254D01*
X230224961Y-107864364D01*
X230224954Y-107864362D01*
X230224952Y-107864361D01*
X229939993Y-107788007D01*
X229891113Y-107781571D01*
X229647513Y-107749500D01*
X229647506Y-107749500D01*
X229352494Y-107749500D01*
X229352486Y-107749500D01*
X229074085Y-107786153D01*
X229060007Y-107788007D01*
X228885861Y-107834669D01*
X228775048Y-107864361D01*
X228775038Y-107864364D01*
X228502499Y-107977254D01*
X228502489Y-107977258D01*
X228247006Y-108124761D01*
X228012959Y-108304352D01*
X228012952Y-108304358D01*
X227804358Y-108512952D01*
X227804352Y-108512959D01*
X227624761Y-108747006D01*
X227477258Y-109002489D01*
X227477254Y-109002499D01*
X227364364Y-109275038D01*
X227364361Y-109275048D01*
X227314017Y-109462938D01*
X227288008Y-109560004D01*
X227288006Y-109560015D01*
X227249500Y-109852486D01*
X227249500Y-110147513D01*
X227267062Y-110280901D01*
X227288007Y-110439993D01*
X227339263Y-110631284D01*
X227364361Y-110724951D01*
X227364364Y-110724961D01*
X227477254Y-110997500D01*
X227477258Y-110997510D01*
X227624761Y-111252993D01*
X227804352Y-111487040D01*
X227804358Y-111487047D01*
X228012952Y-111695641D01*
X228012959Y-111695647D01*
X228247006Y-111875238D01*
X228502489Y-112022741D01*
X228502490Y-112022741D01*
X228502493Y-112022743D01*
X228775048Y-112135639D01*
X229060007Y-112211993D01*
X229352494Y-112250500D01*
X229352501Y-112250500D01*
X229647499Y-112250500D01*
X229647506Y-112250500D01*
X229939993Y-112211993D01*
X230224952Y-112135639D01*
X230497507Y-112022743D01*
X230752994Y-111875238D01*
X230987042Y-111695646D01*
X231195646Y-111487042D01*
X231217124Y-111459052D01*
X231273552Y-111417849D01*
X231343298Y-111413694D01*
X231404218Y-111447906D01*
X231436971Y-111509624D01*
X231439500Y-111534538D01*
X231439500Y-111659903D01*
X231419815Y-111726942D01*
X231403181Y-111747584D01*
X230287584Y-112863181D01*
X230226261Y-112896666D01*
X230199903Y-112899500D01*
X214086670Y-112899500D01*
X214086654Y-112899499D01*
X214079058Y-112899499D01*
X213920943Y-112899499D01*
X213844579Y-112919961D01*
X213768214Y-112940423D01*
X213768209Y-112940426D01*
X213631290Y-113019475D01*
X213631282Y-113019481D01*
X213124217Y-113526546D01*
X213124214Y-113526548D01*
X213124215Y-113526549D01*
X213019479Y-113631285D01*
X213019478Y-113631287D01*
X212974322Y-113709500D01*
X212940424Y-113768212D01*
X212940423Y-113768213D01*
X212924668Y-113827011D01*
X212899499Y-113920943D01*
X212899499Y-113920945D01*
X212899499Y-114089046D01*
X212899500Y-114089059D01*
X212899500Y-125199903D01*
X212879815Y-125266942D01*
X212863181Y-125287584D01*
X211787584Y-126363181D01*
X211726261Y-126396666D01*
X211699903Y-126399500D01*
X197224500Y-126399500D01*
X197157461Y-126379815D01*
X197111706Y-126327011D01*
X197100500Y-126275500D01*
X197100500Y-116300097D01*
X197120185Y-116233058D01*
X197136819Y-116212416D01*
X199292416Y-114056819D01*
X199353739Y-114023334D01*
X199380097Y-114020500D01*
X199619903Y-114020500D01*
X199686942Y-114040185D01*
X199707584Y-114056819D01*
X203125139Y-117474374D01*
X203125149Y-117474385D01*
X203129479Y-117478715D01*
X203129480Y-117478716D01*
X203241284Y-117590520D01*
X203241286Y-117590521D01*
X203292706Y-117620208D01*
X203292705Y-117620208D01*
X203292708Y-117620209D01*
X203378209Y-117669574D01*
X203378210Y-117669575D01*
X203378212Y-117669575D01*
X203378215Y-117669577D01*
X203530943Y-117710501D01*
X203530946Y-117710501D01*
X203696653Y-117710501D01*
X203696669Y-117710500D01*
X208684219Y-117710500D01*
X208751258Y-117730185D01*
X208797013Y-117782989D01*
X208806957Y-117852147D01*
X208794704Y-117890795D01*
X208748444Y-117981585D01*
X208682753Y-118183760D01*
X208651701Y-118379815D01*
X208649500Y-118393713D01*
X208649500Y-118606287D01*
X208682754Y-118816243D01*
X208716773Y-118920943D01*
X208748444Y-119018414D01*
X208844951Y-119207820D01*
X208969890Y-119379786D01*
X209120213Y-119530109D01*
X209292182Y-119655050D01*
X209300946Y-119659516D01*
X209351742Y-119707491D01*
X209368536Y-119775312D01*
X209345998Y-119841447D01*
X209300946Y-119880484D01*
X209292182Y-119884949D01*
X209120213Y-120009890D01*
X208969890Y-120160213D01*
X208844951Y-120332179D01*
X208748444Y-120521585D01*
X208682753Y-120723760D01*
X208662023Y-120854646D01*
X208649500Y-120933713D01*
X208649500Y-121146287D01*
X208682754Y-121356243D01*
X208722796Y-121479480D01*
X208748444Y-121558414D01*
X208844951Y-121747820D01*
X208969890Y-121919786D01*
X209120213Y-122070109D01*
X209292182Y-122195050D01*
X209300946Y-122199516D01*
X209351742Y-122247491D01*
X209368536Y-122315312D01*
X209345998Y-122381447D01*
X209300946Y-122420484D01*
X209292182Y-122424949D01*
X209120213Y-122549890D01*
X208969890Y-122700213D01*
X208844951Y-122872179D01*
X208748444Y-123061585D01*
X208682753Y-123263760D01*
X208649500Y-123473713D01*
X208649500Y-123686286D01*
X208681635Y-123889182D01*
X208682754Y-123896243D01*
X208715862Y-123998140D01*
X208748444Y-124098414D01*
X208844951Y-124287820D01*
X208969890Y-124459786D01*
X209120213Y-124610109D01*
X209292179Y-124735048D01*
X209292181Y-124735049D01*
X209292184Y-124735051D01*
X209481588Y-124831557D01*
X209683757Y-124897246D01*
X209893713Y-124930500D01*
X209893714Y-124930500D01*
X210106286Y-124930500D01*
X210106287Y-124930500D01*
X210316243Y-124897246D01*
X210518412Y-124831557D01*
X210707816Y-124735051D01*
X210729789Y-124719086D01*
X210879786Y-124610109D01*
X210879788Y-124610106D01*
X210879792Y-124610104D01*
X211030104Y-124459792D01*
X211030106Y-124459788D01*
X211030109Y-124459786D01*
X211155048Y-124287820D01*
X211155047Y-124287820D01*
X211155051Y-124287816D01*
X211251557Y-124098412D01*
X211317246Y-123896243D01*
X211350500Y-123686287D01*
X211350500Y-123473713D01*
X211317246Y-123263757D01*
X211251557Y-123061588D01*
X211155051Y-122872184D01*
X211155049Y-122872181D01*
X211155048Y-122872179D01*
X211030109Y-122700213D01*
X210879786Y-122549890D01*
X210707820Y-122424951D01*
X210707115Y-122424591D01*
X210699054Y-122420485D01*
X210648259Y-122372512D01*
X210631463Y-122304692D01*
X210653999Y-122238556D01*
X210699054Y-122199515D01*
X210707816Y-122195051D01*
X210834055Y-122103334D01*
X210879786Y-122070109D01*
X210879788Y-122070106D01*
X210879792Y-122070104D01*
X211030104Y-121919792D01*
X211030106Y-121919788D01*
X211030109Y-121919786D01*
X211155048Y-121747820D01*
X211155047Y-121747820D01*
X211155051Y-121747816D01*
X211251557Y-121558412D01*
X211317246Y-121356243D01*
X211350500Y-121146287D01*
X211350500Y-120933713D01*
X211317246Y-120723757D01*
X211251557Y-120521588D01*
X211155051Y-120332184D01*
X211155049Y-120332181D01*
X211155048Y-120332179D01*
X211030109Y-120160213D01*
X210879786Y-120009890D01*
X210707820Y-119884951D01*
X210707115Y-119884591D01*
X210699054Y-119880485D01*
X210648259Y-119832512D01*
X210631463Y-119764692D01*
X210653999Y-119698556D01*
X210699054Y-119659515D01*
X210707816Y-119655051D01*
X210732910Y-119636819D01*
X210879786Y-119530109D01*
X210879788Y-119530106D01*
X210879792Y-119530104D01*
X211030104Y-119379792D01*
X211030106Y-119379788D01*
X211030109Y-119379786D01*
X211155048Y-119207820D01*
X211155047Y-119207820D01*
X211155051Y-119207816D01*
X211251557Y-119018412D01*
X211317246Y-118816243D01*
X211350500Y-118606287D01*
X211350500Y-118393713D01*
X211317246Y-118183757D01*
X211251557Y-117981588D01*
X211155051Y-117792184D01*
X211155049Y-117792181D01*
X211155048Y-117792179D01*
X211030109Y-117620213D01*
X211010419Y-117600523D01*
X210976934Y-117539200D01*
X210981918Y-117469508D01*
X211010419Y-117425161D01*
X211677727Y-116757853D01*
X212358506Y-116077074D01*
X212358511Y-116077070D01*
X212368714Y-116066866D01*
X212368716Y-116066866D01*
X212480520Y-115955062D01*
X212535115Y-115860500D01*
X212559577Y-115818131D01*
X212600500Y-115665403D01*
X212600500Y-115507289D01*
X212600500Y-109913389D01*
X223319500Y-109913389D01*
X223319500Y-110086610D01*
X223344145Y-110242218D01*
X223346598Y-110257701D01*
X223400127Y-110422445D01*
X223478768Y-110576788D01*
X223580586Y-110716928D01*
X223703072Y-110839414D01*
X223843212Y-110941232D01*
X223997555Y-111019873D01*
X224162299Y-111073402D01*
X224333389Y-111100500D01*
X224333390Y-111100500D01*
X224506610Y-111100500D01*
X224506611Y-111100500D01*
X224677701Y-111073402D01*
X224842445Y-111019873D01*
X224996788Y-110941232D01*
X225136928Y-110839414D01*
X225259414Y-110716928D01*
X225361232Y-110576788D01*
X225439873Y-110422445D01*
X225493402Y-110257701D01*
X225520500Y-110086611D01*
X225520500Y-109913389D01*
X225493402Y-109742299D01*
X225439873Y-109577555D01*
X225361232Y-109423212D01*
X225259414Y-109283072D01*
X225206882Y-109230540D01*
X225173397Y-109169217D01*
X225178381Y-109099525D01*
X225220253Y-109043592D01*
X225285717Y-109019175D01*
X225313961Y-109020386D01*
X225564072Y-109060000D01*
X225815928Y-109060000D01*
X226064669Y-109020602D01*
X226304184Y-108942780D01*
X226528575Y-108828446D01*
X226528581Y-108828442D01*
X226630697Y-108754250D01*
X226630698Y-108754250D01*
X226014025Y-108137578D01*
X226045258Y-108124641D01*
X226168097Y-108042563D01*
X226272563Y-107938097D01*
X226354641Y-107815258D01*
X226367577Y-107784025D01*
X226984250Y-108400698D01*
X226984250Y-108400697D01*
X227058442Y-108298581D01*
X227058446Y-108298575D01*
X227172780Y-108074184D01*
X227250602Y-107834669D01*
X227290000Y-107585928D01*
X227290000Y-107334071D01*
X227250602Y-107085330D01*
X227172780Y-106845815D01*
X227058442Y-106621416D01*
X226984250Y-106519301D01*
X226984250Y-106519300D01*
X226367577Y-107135973D01*
X226354641Y-107104742D01*
X226272563Y-106981903D01*
X226168097Y-106877437D01*
X226045258Y-106795359D01*
X226014024Y-106782421D01*
X226630698Y-106165748D01*
X226528583Y-106091557D01*
X226304184Y-105977219D01*
X226064669Y-105899397D01*
X225815928Y-105860000D01*
X225564072Y-105860000D01*
X225315330Y-105899397D01*
X225075815Y-105977219D01*
X224851413Y-106091559D01*
X224749301Y-106165747D01*
X224749300Y-106165748D01*
X225365974Y-106782421D01*
X225334742Y-106795359D01*
X225211903Y-106877437D01*
X225107437Y-106981903D01*
X225025359Y-107104742D01*
X225012421Y-107135974D01*
X224395748Y-106519300D01*
X224395747Y-106519301D01*
X224321559Y-106621413D01*
X224207219Y-106845815D01*
X224129397Y-107085330D01*
X224090000Y-107334071D01*
X224090000Y-107585928D01*
X224129397Y-107834669D01*
X224207219Y-108074184D01*
X224321557Y-108298583D01*
X224395748Y-108400697D01*
X224395748Y-108400698D01*
X225012421Y-107784024D01*
X225025359Y-107815258D01*
X225107437Y-107938097D01*
X225211903Y-108042563D01*
X225334742Y-108124641D01*
X225365974Y-108137577D01*
X224749300Y-108754250D01*
X224751598Y-108783449D01*
X224737233Y-108851827D01*
X224688181Y-108901583D01*
X224620016Y-108916921D01*
X224608583Y-108915650D01*
X224506611Y-108899500D01*
X224333389Y-108899500D01*
X224293728Y-108905781D01*
X224162302Y-108926597D01*
X223997552Y-108980128D01*
X223843211Y-109058768D01*
X223808981Y-109083638D01*
X223703072Y-109160586D01*
X223703070Y-109160588D01*
X223703069Y-109160588D01*
X223580588Y-109283069D01*
X223580588Y-109283070D01*
X223580586Y-109283072D01*
X223537062Y-109342978D01*
X223478768Y-109423211D01*
X223400128Y-109577552D01*
X223346597Y-109742302D01*
X223319500Y-109913389D01*
X212600500Y-109913389D01*
X212600500Y-85089060D01*
X212600501Y-85089047D01*
X212600501Y-84920944D01*
X212559576Y-84768214D01*
X212559573Y-84768209D01*
X212480524Y-84631290D01*
X212480518Y-84631282D01*
X199987590Y-72138355D01*
X199987588Y-72138352D01*
X199868717Y-72019481D01*
X199868716Y-72019480D01*
X199781904Y-71969360D01*
X199781904Y-71969359D01*
X199781900Y-71969358D01*
X199731785Y-71940423D01*
X199579057Y-71899499D01*
X199420943Y-71899499D01*
X199413347Y-71899499D01*
X199413331Y-71899500D01*
X190722940Y-71899500D01*
X190682019Y-71910464D01*
X190682019Y-71910465D01*
X190644751Y-71920451D01*
X190570214Y-71940423D01*
X190570209Y-71940426D01*
X190433290Y-72019475D01*
X190433282Y-72019481D01*
X190321478Y-72131286D01*
X189294522Y-73158241D01*
X189233199Y-73191726D01*
X189168523Y-73188491D01*
X189126245Y-73174754D01*
X188986272Y-73152584D01*
X188916287Y-73141500D01*
X188703713Y-73141500D01*
X188655042Y-73149208D01*
X188493760Y-73174753D01*
X188291585Y-73240444D01*
X188102179Y-73336951D01*
X187930213Y-73461890D01*
X187779890Y-73612213D01*
X187654949Y-73784182D01*
X187650484Y-73792946D01*
X187602509Y-73843742D01*
X187534688Y-73860536D01*
X187468553Y-73837998D01*
X187429516Y-73792946D01*
X187425050Y-73784182D01*
X187300109Y-73612213D01*
X187149786Y-73461890D01*
X186977820Y-73336951D01*
X186788414Y-73240444D01*
X186788413Y-73240443D01*
X186788412Y-73240443D01*
X186586243Y-73174754D01*
X186586241Y-73174753D01*
X186586240Y-73174753D01*
X186424957Y-73149208D01*
X186376287Y-73141500D01*
X186163713Y-73141500D01*
X186115042Y-73149208D01*
X185953760Y-73174753D01*
X185751585Y-73240444D01*
X185562179Y-73336951D01*
X185390213Y-73461890D01*
X185239890Y-73612213D01*
X185114949Y-73784182D01*
X185110484Y-73792946D01*
X185062509Y-73843742D01*
X184994688Y-73860536D01*
X184928553Y-73837998D01*
X184889516Y-73792946D01*
X184885050Y-73784182D01*
X184760109Y-73612213D01*
X184609786Y-73461890D01*
X184437820Y-73336951D01*
X184248414Y-73240444D01*
X184248413Y-73240443D01*
X184248412Y-73240443D01*
X184046243Y-73174754D01*
X184046241Y-73174753D01*
X184046240Y-73174753D01*
X183884957Y-73149208D01*
X183836287Y-73141500D01*
X183623713Y-73141500D01*
X183575042Y-73149208D01*
X183413760Y-73174753D01*
X183211585Y-73240444D01*
X183022179Y-73336951D01*
X182850215Y-73461889D01*
X182736285Y-73575819D01*
X182674962Y-73609303D01*
X182605270Y-73604319D01*
X182549337Y-73562447D01*
X182532422Y-73531470D01*
X182483354Y-73399913D01*
X182483350Y-73399906D01*
X182397190Y-73284812D01*
X182397187Y-73284809D01*
X182282093Y-73198649D01*
X182282086Y-73198645D01*
X182147379Y-73148403D01*
X182147372Y-73148401D01*
X182087844Y-73142000D01*
X181440000Y-73142000D01*
X181440000Y-74058988D01*
X181382993Y-74026075D01*
X181255826Y-73992000D01*
X181124174Y-73992000D01*
X180997007Y-74026075D01*
X180940000Y-74058988D01*
X180940000Y-73142000D01*
X180292155Y-73142000D01*
X180232627Y-73148401D01*
X180232620Y-73148403D01*
X180097913Y-73198645D01*
X180097906Y-73198649D01*
X179982812Y-73284809D01*
X179982809Y-73284812D01*
X179896649Y-73399906D01*
X179896645Y-73399913D01*
X179846403Y-73534620D01*
X179846401Y-73534627D01*
X179840000Y-73594155D01*
X179840000Y-74242000D01*
X180756988Y-74242000D01*
X180724075Y-74299007D01*
X180690000Y-74426174D01*
X180690000Y-74557826D01*
X180724075Y-74684993D01*
X180756988Y-74742000D01*
X179840000Y-74742000D01*
X179840000Y-75389844D01*
X179846401Y-75449372D01*
X179846403Y-75449379D01*
X179896645Y-75584086D01*
X179896649Y-75584093D01*
X179982809Y-75699187D01*
X179982812Y-75699190D01*
X180097906Y-75785350D01*
X180097913Y-75785354D01*
X180232620Y-75835596D01*
X180232627Y-75835598D01*
X180292155Y-75841999D01*
X180292172Y-75842000D01*
X180940000Y-75842000D01*
X180940000Y-74925012D01*
X180997007Y-74957925D01*
X181124174Y-74992000D01*
X181255826Y-74992000D01*
X181382993Y-74957925D01*
X181440000Y-74925012D01*
X181440000Y-75842000D01*
X181735500Y-75842000D01*
X181802539Y-75861685D01*
X181848294Y-75914489D01*
X181859500Y-75966000D01*
X181859500Y-105707969D01*
X181839815Y-105775008D01*
X181787011Y-105820763D01*
X181753535Y-105829438D01*
X181753688Y-105830274D01*
X181747447Y-105831413D01*
X181589045Y-105877434D01*
X181589042Y-105877435D01*
X181447056Y-105961405D01*
X181447047Y-105961412D01*
X181330412Y-106078047D01*
X181330403Y-106078058D01*
X181296440Y-106135487D01*
X181245371Y-106183170D01*
X181176629Y-106195673D01*
X181112040Y-106169027D01*
X181082977Y-106135486D01*
X181049195Y-106078364D01*
X181049189Y-106078356D01*
X180932643Y-105961810D01*
X180932634Y-105961803D01*
X180790756Y-105877897D01*
X180790753Y-105877896D01*
X180632473Y-105831911D01*
X180632467Y-105831910D01*
X180595481Y-105829000D01*
X179244530Y-105829000D01*
X179244508Y-105829001D01*
X179207533Y-105831910D01*
X179049242Y-105877897D01*
X178907365Y-105961803D01*
X178907356Y-105961810D01*
X178790810Y-106078356D01*
X178790801Y-106078367D01*
X178757021Y-106135487D01*
X178705952Y-106183170D01*
X178637210Y-106195673D01*
X178572621Y-106169027D01*
X178543558Y-106135486D01*
X178509594Y-106078056D01*
X178509587Y-106078047D01*
X178392952Y-105961412D01*
X178392943Y-105961405D01*
X178282718Y-105896218D01*
X178250959Y-105877436D01*
X178250958Y-105877435D01*
X178250957Y-105877435D01*
X178250954Y-105877434D01*
X178092552Y-105831413D01*
X178092546Y-105831412D01*
X178055541Y-105828500D01*
X178055534Y-105828500D01*
X176704466Y-105828500D01*
X176704458Y-105828500D01*
X176667453Y-105831412D01*
X176667447Y-105831413D01*
X176509045Y-105877434D01*
X176509042Y-105877435D01*
X176367056Y-105961405D01*
X176367047Y-105961412D01*
X176250412Y-106078047D01*
X176250405Y-106078056D01*
X176166435Y-106220042D01*
X176166434Y-106220045D01*
X176120413Y-106378447D01*
X176120412Y-106378453D01*
X176117500Y-106415458D01*
X176117500Y-108674541D01*
X176120412Y-108711546D01*
X176120413Y-108711552D01*
X176166434Y-108869954D01*
X176166435Y-108869957D01*
X176166436Y-108869959D01*
X176185218Y-108901718D01*
X176250405Y-109011943D01*
X176250406Y-109011944D01*
X176250408Y-109011947D01*
X176346608Y-109108147D01*
X176359240Y-109122938D01*
X176417019Y-109202464D01*
X176557536Y-109342981D01*
X176718306Y-109459787D01*
X176779500Y-109490967D01*
X176895367Y-109550005D01*
X176895370Y-109550006D01*
X176980150Y-109577552D01*
X177084364Y-109611413D01*
X177280639Y-109642500D01*
X177280640Y-109642500D01*
X177479360Y-109642500D01*
X177479361Y-109642500D01*
X177675636Y-109611413D01*
X177864632Y-109550005D01*
X178041694Y-109459787D01*
X178202464Y-109342981D01*
X178342981Y-109202464D01*
X178400760Y-109122936D01*
X178413389Y-109108148D01*
X178509592Y-109011947D01*
X178543559Y-108954513D01*
X178594626Y-108906830D01*
X178663368Y-108894326D01*
X178727958Y-108920971D01*
X178757022Y-108954513D01*
X178790803Y-109011634D01*
X178790807Y-109011639D01*
X178862807Y-109083638D01*
X179482352Y-108464093D01*
X179505792Y-108551571D01*
X179564311Y-108652930D01*
X179647070Y-108735689D01*
X179748429Y-108794208D01*
X179835905Y-108817647D01*
X179221283Y-109432268D01*
X179221283Y-109432269D01*
X179258567Y-109459358D01*
X179435562Y-109549542D01*
X179624477Y-109610924D01*
X179820679Y-109642000D01*
X180019321Y-109642000D01*
X180215520Y-109610924D01*
X180215523Y-109610924D01*
X180404437Y-109549542D01*
X180581425Y-109459362D01*
X180618716Y-109432268D01*
X180004095Y-108817647D01*
X180091571Y-108794208D01*
X180192930Y-108735689D01*
X180275689Y-108652930D01*
X180334208Y-108551571D01*
X180357647Y-108464094D01*
X180977191Y-109083639D01*
X181049195Y-109011635D01*
X181082976Y-108954514D01*
X181134045Y-108906830D01*
X181202787Y-108894326D01*
X181267376Y-108920971D01*
X181296440Y-108954511D01*
X181330408Y-109011947D01*
X181426608Y-109108147D01*
X181439240Y-109122938D01*
X181497019Y-109202464D01*
X181637536Y-109342981D01*
X181760431Y-109432269D01*
X181798309Y-109459789D01*
X181800285Y-109461000D01*
X181800878Y-109461656D01*
X181802248Y-109462651D01*
X181802039Y-109462938D01*
X181847163Y-109512810D01*
X181859500Y-109566730D01*
X181859500Y-111239903D01*
X181839815Y-111306942D01*
X181823181Y-111327584D01*
X179287584Y-113863181D01*
X179226261Y-113896666D01*
X179199903Y-113899500D01*
X166224500Y-113899500D01*
X166157461Y-113879815D01*
X166111706Y-113827011D01*
X166100500Y-113775500D01*
X166100500Y-103920943D01*
X166094754Y-103899500D01*
X166075880Y-103829060D01*
X166059577Y-103768216D01*
X166019732Y-103699201D01*
X165980524Y-103631290D01*
X165980521Y-103631286D01*
X165980520Y-103631284D01*
X165868716Y-103519480D01*
X165868715Y-103519479D01*
X165864385Y-103515149D01*
X165864374Y-103515139D01*
X164487590Y-102138355D01*
X164487588Y-102138352D01*
X164368717Y-102019481D01*
X164368716Y-102019480D01*
X164281904Y-101969360D01*
X164281904Y-101969359D01*
X164281900Y-101969358D01*
X164231785Y-101940423D01*
X164079057Y-101899499D01*
X163920943Y-101899499D01*
X163913347Y-101899499D01*
X163913331Y-101899500D01*
X163079057Y-101899500D01*
X162920943Y-101899500D01*
X162768215Y-101940423D01*
X162768214Y-101940423D01*
X162768212Y-101940424D01*
X162768209Y-101940425D01*
X162718096Y-101969359D01*
X162718095Y-101969360D01*
X162674689Y-101994420D01*
X162631285Y-102019479D01*
X162631282Y-102019481D01*
X160519481Y-104131282D01*
X160519480Y-104131284D01*
X160469459Y-104217925D01*
X160469458Y-104217926D01*
X160469456Y-104217928D01*
X160440425Y-104268209D01*
X160440424Y-104268210D01*
X160440423Y-104268215D01*
X160399499Y-104420943D01*
X160399499Y-104420945D01*
X160399499Y-104589046D01*
X160399500Y-104589059D01*
X160399500Y-109699902D01*
X160379815Y-109766941D01*
X160363181Y-109787583D01*
X159519481Y-110631282D01*
X159519477Y-110631287D01*
X159470034Y-110716927D01*
X159470034Y-110716928D01*
X159440423Y-110768214D01*
X159440423Y-110768215D01*
X159399499Y-110920943D01*
X159399499Y-110920945D01*
X159399499Y-111089046D01*
X159399500Y-111089059D01*
X159399500Y-113585500D01*
X159379815Y-113652539D01*
X159327011Y-113698294D01*
X159275502Y-113709500D01*
X159202130Y-113709500D01*
X159202123Y-113709501D01*
X159142516Y-113715908D01*
X159007671Y-113766202D01*
X159007664Y-113766206D01*
X158892457Y-113852451D01*
X158886180Y-113858728D01*
X158883910Y-113856458D01*
X158840550Y-113888883D01*
X158770856Y-113893832D01*
X158709595Y-113860360D01*
X154636819Y-109787584D01*
X154603334Y-109726261D01*
X154600500Y-109699903D01*
X154600500Y-105800098D01*
X154620185Y-105733059D01*
X154636819Y-105712416D01*
X154712418Y-105636818D01*
X154773742Y-105603334D01*
X154800099Y-105600500D01*
X155079208Y-105600500D01*
X155146247Y-105620185D01*
X155179524Y-105651612D01*
X155274310Y-105782073D01*
X155407927Y-105915690D01*
X155560801Y-106026760D01*
X155594150Y-106043752D01*
X155729163Y-106112545D01*
X155729165Y-106112545D01*
X155729168Y-106112547D01*
X155799767Y-106135486D01*
X155908881Y-106170940D01*
X156095514Y-106200500D01*
X156095519Y-106200500D01*
X156284486Y-106200500D01*
X156471118Y-106170940D01*
X156650832Y-106112547D01*
X156819199Y-106026760D01*
X156972073Y-105915690D01*
X157105690Y-105782073D01*
X157216760Y-105629199D01*
X157302547Y-105460832D01*
X157360940Y-105281118D01*
X157371756Y-105212827D01*
X157390500Y-105094486D01*
X157390500Y-104905513D01*
X157360940Y-104718881D01*
X157319860Y-104592452D01*
X157302547Y-104539168D01*
X157302545Y-104539165D01*
X157302545Y-104539163D01*
X157252234Y-104440423D01*
X157216760Y-104370801D01*
X157105690Y-104217927D01*
X156972073Y-104084310D01*
X156819199Y-103973240D01*
X156650836Y-103887454D01*
X156471118Y-103829059D01*
X156284486Y-103799500D01*
X156284481Y-103799500D01*
X156095519Y-103799500D01*
X156095514Y-103799500D01*
X155908881Y-103829059D01*
X155729163Y-103887454D01*
X155560800Y-103973240D01*
X155497160Y-104019478D01*
X155407927Y-104084310D01*
X155407925Y-104084312D01*
X155407924Y-104084312D01*
X155274312Y-104217924D01*
X155274312Y-104217925D01*
X155274310Y-104217927D01*
X155179526Y-104348386D01*
X155124196Y-104391051D01*
X155079208Y-104399500D01*
X154586670Y-104399500D01*
X154586654Y-104399499D01*
X154579058Y-104399499D01*
X154420943Y-104399499D01*
X154344579Y-104419961D01*
X154268214Y-104440423D01*
X154268209Y-104440426D01*
X154131290Y-104519475D01*
X154131282Y-104519481D01*
X153624217Y-105026546D01*
X153624214Y-105026548D01*
X153624215Y-105026549D01*
X153519478Y-105131286D01*
X153488094Y-105185645D01*
X153472402Y-105212826D01*
X153440423Y-105268215D01*
X153399499Y-105420943D01*
X153399499Y-105420945D01*
X153399499Y-105589046D01*
X153399500Y-105589059D01*
X153399500Y-109913330D01*
X153399499Y-109913348D01*
X153399499Y-110079054D01*
X153399498Y-110079054D01*
X153399499Y-110079057D01*
X153432571Y-110202483D01*
X153440423Y-110231784D01*
X153440424Y-110231787D01*
X153446448Y-110242220D01*
X153446449Y-110242222D01*
X153519477Y-110368712D01*
X153519481Y-110368717D01*
X153638349Y-110487585D01*
X153638355Y-110487590D01*
X158475139Y-115324374D01*
X158475149Y-115324385D01*
X158479479Y-115328715D01*
X158479480Y-115328716D01*
X158591284Y-115440520D01*
X158678095Y-115490639D01*
X158687498Y-115496068D01*
X158735714Y-115546632D01*
X158749500Y-115603455D01*
X158749500Y-115757869D01*
X158749501Y-115757876D01*
X158755908Y-115817483D01*
X158806202Y-115952328D01*
X158806206Y-115952335D01*
X158892452Y-116067544D01*
X158892455Y-116067547D01*
X159007664Y-116153793D01*
X159007671Y-116153797D01*
X159142517Y-116204091D01*
X159142516Y-116204091D01*
X159149444Y-116204835D01*
X159202127Y-116210500D01*
X159265733Y-116210499D01*
X159332770Y-116230183D01*
X159378526Y-116282986D01*
X159388470Y-116352144D01*
X159359446Y-116415700D01*
X159338619Y-116434816D01*
X159185354Y-116546171D01*
X159046174Y-116685351D01*
X159046174Y-116685352D01*
X159046172Y-116685354D01*
X158996485Y-116753741D01*
X158930476Y-116844594D01*
X158841117Y-117019970D01*
X158780290Y-117207173D01*
X158749500Y-117401577D01*
X158749500Y-117598422D01*
X158780290Y-117792826D01*
X158841117Y-117980029D01*
X158921006Y-118136819D01*
X158930476Y-118155405D01*
X159046172Y-118314646D01*
X159185354Y-118453828D01*
X159344595Y-118569524D01*
X159416745Y-118606286D01*
X159521213Y-118659515D01*
X159572009Y-118707489D01*
X159588804Y-118775310D01*
X159566267Y-118841445D01*
X159521213Y-118880485D01*
X159344594Y-118970476D01*
X159278617Y-119018412D01*
X159185354Y-119086172D01*
X159185352Y-119086174D01*
X159185351Y-119086174D01*
X159046174Y-119225351D01*
X159046174Y-119225352D01*
X159046172Y-119225354D01*
X159029185Y-119248735D01*
X158930476Y-119384594D01*
X158841117Y-119559970D01*
X158780290Y-119747173D01*
X158749500Y-119941577D01*
X158749500Y-120138422D01*
X158780290Y-120332826D01*
X158841117Y-120520029D01*
X158930476Y-120695405D01*
X159046172Y-120854646D01*
X159185354Y-120993828D01*
X159304784Y-121080600D01*
X159344596Y-121109525D01*
X159521763Y-121199795D01*
X159572560Y-121247769D01*
X159589355Y-121315590D01*
X159566818Y-121381725D01*
X159521764Y-121420765D01*
X159344859Y-121510902D01*
X159309873Y-121536320D01*
X159309872Y-121536320D01*
X159953554Y-122180000D01*
X159947339Y-122180000D01*
X159845606Y-122207259D01*
X159754394Y-122259920D01*
X159679920Y-122334394D01*
X159627259Y-122425606D01*
X159600000Y-122527339D01*
X159600000Y-122533552D01*
X158956320Y-121889872D01*
X158956320Y-121889873D01*
X158930902Y-121924859D01*
X158930899Y-121924863D01*
X158841582Y-122100161D01*
X158780778Y-122287294D01*
X158750000Y-122481617D01*
X158750000Y-122678382D01*
X158780778Y-122872705D01*
X158841581Y-123059835D01*
X158930905Y-123235145D01*
X158956319Y-123270125D01*
X158956320Y-123270125D01*
X159600000Y-122626445D01*
X159600000Y-122632661D01*
X159627259Y-122734394D01*
X159679920Y-122825606D01*
X159754394Y-122900080D01*
X159845606Y-122952741D01*
X159947339Y-122980000D01*
X159953553Y-122980000D01*
X159309873Y-123623677D01*
X159309873Y-123623678D01*
X159344858Y-123649096D01*
X159520164Y-123738418D01*
X159707294Y-123799221D01*
X159901618Y-123830000D01*
X160098382Y-123830000D01*
X160292705Y-123799221D01*
X160479835Y-123738418D01*
X160655143Y-123649095D01*
X160690125Y-123623678D01*
X160690126Y-123623678D01*
X160046448Y-122980000D01*
X160052661Y-122980000D01*
X160154394Y-122952741D01*
X160245606Y-122900080D01*
X160320080Y-122825606D01*
X160372741Y-122734394D01*
X160400000Y-122632661D01*
X160400000Y-122626448D01*
X161043678Y-123270126D01*
X161043678Y-123270125D01*
X161069095Y-123235143D01*
X161158418Y-123059835D01*
X161219221Y-122872705D01*
X161250000Y-122678382D01*
X161250000Y-122481617D01*
X161219221Y-122287294D01*
X161158418Y-122100164D01*
X161069096Y-121924858D01*
X161043678Y-121889873D01*
X161043677Y-121889873D01*
X160400000Y-122533551D01*
X160400000Y-122527339D01*
X160372741Y-122425606D01*
X160320080Y-122334394D01*
X160245606Y-122259920D01*
X160154394Y-122207259D01*
X160052661Y-122180000D01*
X160046447Y-122180000D01*
X160690125Y-121536320D01*
X160690125Y-121536319D01*
X160655145Y-121510905D01*
X160478235Y-121420765D01*
X160427439Y-121372790D01*
X160410644Y-121304969D01*
X160433182Y-121238834D01*
X160478236Y-121199795D01*
X160480022Y-121198884D01*
X160480025Y-121198884D01*
X160655405Y-121109524D01*
X160814646Y-120993828D01*
X160953828Y-120854646D01*
X161069524Y-120695405D01*
X161158884Y-120520025D01*
X161219709Y-120332826D01*
X161224893Y-120300097D01*
X161250500Y-120138422D01*
X161250500Y-119941577D01*
X161219709Y-119747173D01*
X161182053Y-119631282D01*
X161158884Y-119559975D01*
X161158882Y-119559972D01*
X161158882Y-119559970D01*
X161069523Y-119384594D01*
X161057987Y-119368716D01*
X160953828Y-119225354D01*
X160814646Y-119086172D01*
X160721383Y-119018412D01*
X160655403Y-118970474D01*
X160478787Y-118880485D01*
X160427990Y-118832511D01*
X160411195Y-118764690D01*
X160433732Y-118698555D01*
X160478787Y-118659515D01*
X160655403Y-118569525D01*
X160655402Y-118569525D01*
X160655405Y-118569524D01*
X160814646Y-118453828D01*
X160953828Y-118314646D01*
X161069524Y-118155405D01*
X161069524Y-118155403D01*
X161072278Y-118151614D01*
X161127608Y-118108949D01*
X161172596Y-118100500D01*
X169699903Y-118100500D01*
X169766942Y-118120185D01*
X169787584Y-118136819D01*
X170863181Y-119212416D01*
X170896666Y-119273739D01*
X170899500Y-119300097D01*
X170899500Y-125413330D01*
X170899499Y-125413348D01*
X170899499Y-125579054D01*
X170899498Y-125579054D01*
X170940423Y-125731785D01*
X170968235Y-125779955D01*
X170968236Y-125779959D01*
X170968237Y-125779959D01*
X171019479Y-125868714D01*
X171019481Y-125868717D01*
X171138349Y-125987585D01*
X171138355Y-125987590D01*
X171838584Y-126687819D01*
X171872069Y-126749142D01*
X171867085Y-126818834D01*
X171825213Y-126874767D01*
X171759749Y-126899184D01*
X171750903Y-126899500D01*
X157551026Y-126899500D01*
X157483987Y-126879815D01*
X157482243Y-126878674D01*
X153917915Y-124502455D01*
X153899017Y-124486962D01*
X153136819Y-123724764D01*
X153122115Y-123697836D01*
X153105523Y-123672018D01*
X153104631Y-123665817D01*
X153103334Y-123663441D01*
X153100500Y-123637083D01*
X153100500Y-120089060D01*
X153100501Y-120089047D01*
X153100501Y-119920944D01*
X153100501Y-119920943D01*
X153059577Y-119768216D01*
X152996820Y-119659516D01*
X152980524Y-119631290D01*
X152980518Y-119631282D01*
X151987590Y-118638355D01*
X151987588Y-118638352D01*
X151868717Y-118519481D01*
X151868716Y-118519480D01*
X151781904Y-118469360D01*
X151781904Y-118469359D01*
X151781900Y-118469358D01*
X151731785Y-118440423D01*
X151579057Y-118399499D01*
X151420943Y-118399499D01*
X151413347Y-118399499D01*
X151413331Y-118399500D01*
X131224500Y-118399500D01*
X131157461Y-118379815D01*
X131111706Y-118327011D01*
X131100500Y-118275500D01*
X131100500Y-109913389D01*
X134319500Y-109913389D01*
X134319500Y-110086610D01*
X134344145Y-110242218D01*
X134346598Y-110257701D01*
X134400127Y-110422445D01*
X134478768Y-110576788D01*
X134580586Y-110716928D01*
X134703072Y-110839414D01*
X134843212Y-110941232D01*
X134997555Y-111019873D01*
X135162299Y-111073402D01*
X135333389Y-111100500D01*
X135333390Y-111100500D01*
X135506610Y-111100500D01*
X135506611Y-111100500D01*
X135677701Y-111073402D01*
X135842445Y-111019873D01*
X135996788Y-110941232D01*
X136136928Y-110839414D01*
X136259414Y-110716928D01*
X136361232Y-110576788D01*
X136439873Y-110422445D01*
X136493402Y-110257701D01*
X136520500Y-110086611D01*
X136520500Y-109913389D01*
X136510854Y-109852486D01*
X138249500Y-109852486D01*
X138249500Y-110147513D01*
X138267062Y-110280901D01*
X138288007Y-110439993D01*
X138339263Y-110631284D01*
X138364361Y-110724951D01*
X138364364Y-110724961D01*
X138477254Y-110997500D01*
X138477258Y-110997510D01*
X138624761Y-111252993D01*
X138804352Y-111487040D01*
X138804358Y-111487047D01*
X139012952Y-111695641D01*
X139012959Y-111695647D01*
X139247006Y-111875238D01*
X139502489Y-112022741D01*
X139502490Y-112022741D01*
X139502493Y-112022743D01*
X139775048Y-112135639D01*
X140060007Y-112211993D01*
X140352494Y-112250500D01*
X140352501Y-112250500D01*
X140647499Y-112250500D01*
X140647506Y-112250500D01*
X140939993Y-112211993D01*
X141224952Y-112135639D01*
X141497507Y-112022743D01*
X141752994Y-111875238D01*
X141987042Y-111695646D01*
X142195646Y-111487042D01*
X142375238Y-111252994D01*
X142522743Y-110997507D01*
X142635639Y-110724952D01*
X142711993Y-110439993D01*
X142750500Y-110147506D01*
X142750500Y-109913389D01*
X144479500Y-109913389D01*
X144479500Y-110086610D01*
X144504145Y-110242218D01*
X144506598Y-110257701D01*
X144560127Y-110422445D01*
X144638768Y-110576788D01*
X144740586Y-110716928D01*
X144863072Y-110839414D01*
X145003212Y-110941232D01*
X145157555Y-111019873D01*
X145322299Y-111073402D01*
X145493389Y-111100500D01*
X145493390Y-111100500D01*
X145666610Y-111100500D01*
X145666611Y-111100500D01*
X145837701Y-111073402D01*
X146002445Y-111019873D01*
X146156788Y-110941232D01*
X146296928Y-110839414D01*
X146419414Y-110716928D01*
X146521232Y-110576788D01*
X146599873Y-110422445D01*
X146653402Y-110257701D01*
X146680500Y-110086611D01*
X146680500Y-109913389D01*
X146653402Y-109742299D01*
X146599873Y-109577555D01*
X146521232Y-109423212D01*
X146419414Y-109283072D01*
X146296928Y-109160586D01*
X146156788Y-109058768D01*
X146002445Y-108980127D01*
X145837701Y-108926598D01*
X145837699Y-108926597D01*
X145837698Y-108926597D01*
X145706271Y-108905781D01*
X145666611Y-108899500D01*
X145493389Y-108899500D01*
X145453728Y-108905781D01*
X145322302Y-108926597D01*
X145157552Y-108980128D01*
X145003211Y-109058768D01*
X144968981Y-109083638D01*
X144863072Y-109160586D01*
X144863070Y-109160588D01*
X144863069Y-109160588D01*
X144740588Y-109283069D01*
X144740588Y-109283070D01*
X144740586Y-109283072D01*
X144697062Y-109342978D01*
X144638768Y-109423211D01*
X144560128Y-109577552D01*
X144506597Y-109742302D01*
X144479500Y-109913389D01*
X142750500Y-109913389D01*
X142750500Y-109852494D01*
X142711993Y-109560007D01*
X142635639Y-109275048D01*
X142522743Y-109002493D01*
X142495325Y-108955004D01*
X142375238Y-108747006D01*
X142195647Y-108512959D01*
X142195641Y-108512952D01*
X141987047Y-108304358D01*
X141987040Y-108304352D01*
X141752993Y-108124761D01*
X141497510Y-107977258D01*
X141497500Y-107977254D01*
X141224961Y-107864364D01*
X141224954Y-107864362D01*
X141224952Y-107864361D01*
X140939993Y-107788007D01*
X140891113Y-107781571D01*
X140647513Y-107749500D01*
X140647506Y-107749500D01*
X140352494Y-107749500D01*
X140352486Y-107749500D01*
X140074085Y-107786153D01*
X140060007Y-107788007D01*
X139885861Y-107834669D01*
X139775048Y-107864361D01*
X139775038Y-107864364D01*
X139502499Y-107977254D01*
X139502489Y-107977258D01*
X139247006Y-108124761D01*
X139012959Y-108304352D01*
X139012952Y-108304358D01*
X138804358Y-108512952D01*
X138804352Y-108512959D01*
X138624761Y-108747006D01*
X138477258Y-109002489D01*
X138477254Y-109002499D01*
X138364364Y-109275038D01*
X138364361Y-109275048D01*
X138314017Y-109462938D01*
X138288008Y-109560004D01*
X138288006Y-109560015D01*
X138249500Y-109852486D01*
X136510854Y-109852486D01*
X136493402Y-109742299D01*
X136439873Y-109577555D01*
X136361232Y-109423212D01*
X136259414Y-109283072D01*
X136206882Y-109230540D01*
X136173397Y-109169217D01*
X136178381Y-109099525D01*
X136220253Y-109043592D01*
X136285717Y-109019175D01*
X136313961Y-109020386D01*
X136564072Y-109060000D01*
X136815928Y-109060000D01*
X137064669Y-109020602D01*
X137304184Y-108942780D01*
X137528575Y-108828446D01*
X137528581Y-108828442D01*
X137630697Y-108754250D01*
X137630698Y-108754250D01*
X137014025Y-108137578D01*
X137045258Y-108124641D01*
X137168097Y-108042563D01*
X137272563Y-107938097D01*
X137354641Y-107815258D01*
X137367578Y-107784025D01*
X137984250Y-108400698D01*
X137984250Y-108400697D01*
X138058442Y-108298581D01*
X138058446Y-108298575D01*
X138172780Y-108074184D01*
X138250602Y-107834669D01*
X138290000Y-107585928D01*
X138290000Y-107334071D01*
X138250602Y-107085330D01*
X138172780Y-106845815D01*
X138058442Y-106621416D01*
X137984250Y-106519301D01*
X137984250Y-106519300D01*
X137367577Y-107135973D01*
X137354641Y-107104742D01*
X137272563Y-106981903D01*
X137168097Y-106877437D01*
X137045258Y-106795359D01*
X137014024Y-106782421D01*
X137630698Y-106165748D01*
X137528583Y-106091557D01*
X137304184Y-105977219D01*
X137064669Y-105899397D01*
X136815928Y-105860000D01*
X136564072Y-105860000D01*
X136315330Y-105899397D01*
X136075815Y-105977219D01*
X135851413Y-106091559D01*
X135749301Y-106165747D01*
X135749300Y-106165748D01*
X136365974Y-106782421D01*
X136334742Y-106795359D01*
X136211903Y-106877437D01*
X136107437Y-106981903D01*
X136025359Y-107104742D01*
X136012421Y-107135974D01*
X135395748Y-106519300D01*
X135395747Y-106519301D01*
X135321559Y-106621413D01*
X135207219Y-106845815D01*
X135129397Y-107085330D01*
X135090000Y-107334071D01*
X135090000Y-107585928D01*
X135129397Y-107834669D01*
X135207219Y-108074184D01*
X135321557Y-108298583D01*
X135395748Y-108400697D01*
X135395748Y-108400698D01*
X136012421Y-107784024D01*
X136025359Y-107815258D01*
X136107437Y-107938097D01*
X136211903Y-108042563D01*
X136334742Y-108124641D01*
X136365974Y-108137577D01*
X135749300Y-108754250D01*
X135751598Y-108783449D01*
X135737233Y-108851827D01*
X135688181Y-108901583D01*
X135620016Y-108916921D01*
X135608583Y-108915650D01*
X135506611Y-108899500D01*
X135333389Y-108899500D01*
X135293728Y-108905781D01*
X135162302Y-108926597D01*
X134997552Y-108980128D01*
X134843211Y-109058768D01*
X134808981Y-109083638D01*
X134703072Y-109160586D01*
X134703070Y-109160588D01*
X134703069Y-109160588D01*
X134580588Y-109283069D01*
X134580588Y-109283070D01*
X134580586Y-109283072D01*
X134537062Y-109342978D01*
X134478768Y-109423211D01*
X134400128Y-109577552D01*
X134346597Y-109742302D01*
X134319500Y-109913389D01*
X131100500Y-109913389D01*
X131100500Y-104800097D01*
X131120185Y-104733058D01*
X131136819Y-104712416D01*
X133212416Y-102636819D01*
X133273739Y-102603334D01*
X133300097Y-102600500D01*
X139819903Y-102600500D01*
X139886942Y-102620185D01*
X139907584Y-102636819D01*
X141507840Y-104237076D01*
X141541325Y-104298399D01*
X141538090Y-104363075D01*
X141478910Y-104545210D01*
X141478910Y-104545213D01*
X141439500Y-104794038D01*
X141439500Y-105045961D01*
X141478910Y-105294785D01*
X141556760Y-105534383D01*
X141609737Y-105638355D01*
X141657991Y-105733059D01*
X141671132Y-105758848D01*
X141819201Y-105962649D01*
X141819205Y-105962654D01*
X141997345Y-106140794D01*
X141997350Y-106140798D01*
X142106421Y-106220042D01*
X142201155Y-106288870D01*
X142344184Y-106361747D01*
X142425616Y-106403239D01*
X142425618Y-106403239D01*
X142425621Y-106403241D01*
X142665215Y-106481090D01*
X142914038Y-106520500D01*
X142914039Y-106520500D01*
X143165961Y-106520500D01*
X143165962Y-106520500D01*
X143414785Y-106481090D01*
X143654379Y-106403241D01*
X143878845Y-106288870D01*
X144082656Y-106140793D01*
X144260793Y-105962656D01*
X144408870Y-105758845D01*
X144523241Y-105534379D01*
X144601090Y-105294785D01*
X144640500Y-105045962D01*
X144640500Y-104794038D01*
X144601090Y-104545215D01*
X144523241Y-104305621D01*
X144523239Y-104305618D01*
X144523239Y-104305616D01*
X144434412Y-104131285D01*
X144408870Y-104081155D01*
X144364059Y-104019478D01*
X144260798Y-103877350D01*
X144260794Y-103877345D01*
X144082654Y-103699205D01*
X144082649Y-103699201D01*
X143878848Y-103551132D01*
X143878847Y-103551131D01*
X143878845Y-103551130D01*
X143808209Y-103515139D01*
X143654383Y-103436760D01*
X143414785Y-103358910D01*
X143165962Y-103319500D01*
X142914038Y-103319500D01*
X142831097Y-103332636D01*
X142665213Y-103358910D01*
X142665210Y-103358910D01*
X142483075Y-103418090D01*
X142413234Y-103420085D01*
X142357076Y-103387840D01*
X140607590Y-101638355D01*
X140607588Y-101638352D01*
X140488717Y-101519481D01*
X140488716Y-101519480D01*
X140401904Y-101469360D01*
X140401904Y-101469359D01*
X140401900Y-101469358D01*
X140351785Y-101440423D01*
X140199057Y-101399499D01*
X140040943Y-101399499D01*
X140033347Y-101399499D01*
X140033331Y-101399500D01*
X133086669Y-101399500D01*
X133086653Y-101399499D01*
X133079057Y-101399499D01*
X132920943Y-101399499D01*
X132813587Y-101428265D01*
X132768210Y-101440424D01*
X132768209Y-101440425D01*
X132718096Y-101469359D01*
X132718095Y-101469360D01*
X132674689Y-101494420D01*
X132631285Y-101519479D01*
X132631282Y-101519481D01*
X130019481Y-104131282D01*
X130019480Y-104131284D01*
X129969459Y-104217925D01*
X129969458Y-104217926D01*
X129969456Y-104217928D01*
X129940425Y-104268209D01*
X129940424Y-104268210D01*
X129940423Y-104268215D01*
X129899499Y-104420943D01*
X129899499Y-104420945D01*
X129899499Y-104589046D01*
X129899500Y-104589059D01*
X129899500Y-119079056D01*
X129900257Y-119084808D01*
X129889489Y-119153843D01*
X129843107Y-119206097D01*
X129775837Y-119224980D01*
X129709038Y-119204497D01*
X129708534Y-119204163D01*
X116057049Y-110103174D01*
X116012188Y-110049609D01*
X116003408Y-109980293D01*
X116033497Y-109917234D01*
X116057049Y-109896826D01*
X123083050Y-105212826D01*
X130120300Y-100521326D01*
X130186999Y-100500518D01*
X130189083Y-100500500D01*
X150065890Y-100500500D01*
X150065892Y-100500500D01*
X150193186Y-100466392D01*
X150307314Y-100400500D01*
X150400500Y-100307314D01*
X150466392Y-100193186D01*
X150500500Y-100065892D01*
X150500500Y-100001028D01*
X150500518Y-99998934D01*
X150507265Y-99599500D01*
X150520146Y-98836895D01*
X150520287Y-98832731D01*
X150533153Y-98579054D01*
X150550372Y-98239511D01*
X150556781Y-98113149D01*
X171423500Y-98113149D01*
X171423500Y-98368850D01*
X171430359Y-98420943D01*
X171456874Y-98622340D01*
X171523050Y-98869312D01*
X171523053Y-98869322D01*
X171620894Y-99105531D01*
X171620899Y-99105542D01*
X171748734Y-99326957D01*
X171748745Y-99326973D01*
X171904388Y-99529811D01*
X171904394Y-99529818D01*
X172085181Y-99710605D01*
X172085187Y-99710610D01*
X172288035Y-99866261D01*
X172288042Y-99866265D01*
X172509457Y-99994100D01*
X172509462Y-99994102D01*
X172509465Y-99994104D01*
X172745687Y-100091950D01*
X172992660Y-100158126D01*
X173246157Y-100191500D01*
X173246164Y-100191500D01*
X174401836Y-100191500D01*
X174401843Y-100191500D01*
X174655340Y-100158126D01*
X174902313Y-100091950D01*
X175138535Y-99994104D01*
X175359965Y-99866261D01*
X175562813Y-99710610D01*
X175743610Y-99529813D01*
X175899261Y-99326965D01*
X176027104Y-99105535D01*
X176124950Y-98869313D01*
X176191126Y-98622340D01*
X176224500Y-98368843D01*
X176224500Y-98113157D01*
X176191126Y-97859660D01*
X176124950Y-97612687D01*
X176027104Y-97376465D01*
X176027102Y-97376462D01*
X176027100Y-97376457D01*
X175899265Y-97155042D01*
X175899261Y-97155035D01*
X175743610Y-96952187D01*
X175743605Y-96952181D01*
X175562818Y-96771394D01*
X175562811Y-96771388D01*
X175359973Y-96615745D01*
X175359971Y-96615743D01*
X175359965Y-96615739D01*
X175359960Y-96615736D01*
X175359957Y-96615734D01*
X175138542Y-96487899D01*
X175138531Y-96487894D01*
X174902322Y-96390053D01*
X174902315Y-96390051D01*
X174902313Y-96390050D01*
X174655340Y-96323874D01*
X174599007Y-96316457D01*
X174401850Y-96290500D01*
X174401843Y-96290500D01*
X173246157Y-96290500D01*
X173246149Y-96290500D01*
X173020826Y-96320165D01*
X172992660Y-96323874D01*
X172745687Y-96390050D01*
X172745677Y-96390053D01*
X172509468Y-96487894D01*
X172509457Y-96487899D01*
X172288042Y-96615734D01*
X172288026Y-96615745D01*
X172085188Y-96771388D01*
X172085181Y-96771394D01*
X171904394Y-96952181D01*
X171904388Y-96952188D01*
X171748745Y-97155026D01*
X171748734Y-97155042D01*
X171620899Y-97376457D01*
X171620894Y-97376468D01*
X171523053Y-97612677D01*
X171523050Y-97612687D01*
X171456874Y-97859661D01*
X171423500Y-98113149D01*
X150556781Y-98113149D01*
X150557305Y-98102817D01*
X150557305Y-98102816D01*
X150579101Y-97673033D01*
X150579384Y-97668854D01*
X150584139Y-97612687D01*
X150677334Y-96511768D01*
X150677746Y-96507715D01*
X150814721Y-95354587D01*
X150815283Y-95350457D01*
X150991117Y-94202676D01*
X150991821Y-94198547D01*
X151108503Y-93577773D01*
X151206321Y-93057351D01*
X151207162Y-93053262D01*
X151460079Y-91919974D01*
X151461052Y-91915931D01*
X151752128Y-90791732D01*
X151753226Y-90787773D01*
X152082094Y-89674079D01*
X152083315Y-89670188D01*
X152449614Y-88568225D01*
X152450983Y-88564328D01*
X152854293Y-87475355D01*
X152855775Y-87471553D01*
X153295623Y-86396852D01*
X153297265Y-86393027D01*
X153773170Y-85333771D01*
X153774900Y-85330089D01*
X154286327Y-84287475D01*
X154288172Y-84283870D01*
X154834524Y-83259114D01*
X154836503Y-83255550D01*
X155417138Y-82249861D01*
X155419222Y-82246388D01*
X156033517Y-81260843D01*
X156035723Y-81257433D01*
X156682934Y-80293226D01*
X156685268Y-80289874D01*
X157364660Y-79348097D01*
X157367135Y-79344785D01*
X158077912Y-78426537D01*
X158080486Y-78423324D01*
X158821937Y-77529525D01*
X158824584Y-77526443D01*
X159595767Y-76658232D01*
X159598548Y-76655206D01*
X160398618Y-75813533D01*
X160401450Y-75810652D01*
X161226777Y-74999149D01*
X171423500Y-74999149D01*
X171423500Y-75254850D01*
X171441273Y-75389844D01*
X171456874Y-75508340D01*
X171519900Y-75743557D01*
X171523050Y-75755312D01*
X171523053Y-75755322D01*
X171620894Y-75991531D01*
X171620899Y-75991542D01*
X171748734Y-76212957D01*
X171748745Y-76212973D01*
X171904388Y-76415811D01*
X171904394Y-76415818D01*
X172085181Y-76596605D01*
X172085187Y-76596610D01*
X172288035Y-76752261D01*
X172288042Y-76752265D01*
X172509457Y-76880100D01*
X172509462Y-76880102D01*
X172509465Y-76880104D01*
X172745687Y-76977950D01*
X172992660Y-77044126D01*
X173246157Y-77077500D01*
X173246164Y-77077500D01*
X174401836Y-77077500D01*
X174401843Y-77077500D01*
X174655340Y-77044126D01*
X174902313Y-76977950D01*
X175138535Y-76880104D01*
X175359965Y-76752261D01*
X175562813Y-76596610D01*
X175743610Y-76415813D01*
X175899261Y-76212965D01*
X176027104Y-75991535D01*
X176124950Y-75755313D01*
X176191126Y-75508340D01*
X176224500Y-75254843D01*
X176224500Y-74999157D01*
X176191126Y-74745660D01*
X176124950Y-74498687D01*
X176027104Y-74262465D01*
X176027102Y-74262462D01*
X176027100Y-74262457D01*
X175899265Y-74041042D01*
X175899261Y-74041035D01*
X175743610Y-73838187D01*
X175743605Y-73838181D01*
X175562818Y-73657394D01*
X175562811Y-73657388D01*
X175359973Y-73501745D01*
X175359971Y-73501743D01*
X175359965Y-73501739D01*
X175359960Y-73501736D01*
X175359957Y-73501734D01*
X175138542Y-73373899D01*
X175138531Y-73373894D01*
X174902322Y-73276053D01*
X174902315Y-73276051D01*
X174902313Y-73276050D01*
X174655340Y-73209874D01*
X174599007Y-73202457D01*
X174401850Y-73176500D01*
X174401843Y-73176500D01*
X173246157Y-73176500D01*
X173246149Y-73176500D01*
X173020826Y-73206165D01*
X172992660Y-73209874D01*
X172745687Y-73276050D01*
X172745677Y-73276053D01*
X172509468Y-73373894D01*
X172509457Y-73373899D01*
X172288042Y-73501734D01*
X172288026Y-73501745D01*
X172085188Y-73657388D01*
X172085181Y-73657394D01*
X171904394Y-73838181D01*
X171904388Y-73838188D01*
X171748745Y-74041026D01*
X171748734Y-74041042D01*
X171620899Y-74262457D01*
X171620894Y-74262468D01*
X171523053Y-74498677D01*
X171523050Y-74498687D01*
X171456874Y-74745661D01*
X171423500Y-74999149D01*
X161226777Y-74999149D01*
X161229542Y-74996430D01*
X161232505Y-74993615D01*
X162087554Y-74207889D01*
X162090627Y-74205160D01*
X162971748Y-73448742D01*
X162974897Y-73446131D01*
X163881050Y-72719913D01*
X163884279Y-72717413D01*
X164814447Y-72022212D01*
X164817780Y-72019807D01*
X165770925Y-71356400D01*
X165774278Y-71354149D01*
X166749271Y-70723319D01*
X166752770Y-70721137D01*
X167748506Y-70123603D01*
X167752030Y-70121568D01*
X168767403Y-69557989D01*
X168770983Y-69556081D01*
X169804795Y-69027126D01*
X169808496Y-69025311D01*
X170859567Y-68531582D01*
X170863254Y-68529925D01*
X171930413Y-68071971D01*
X171934267Y-68070394D01*
X173016236Y-67648762D01*
X173020059Y-67647346D01*
X174115704Y-67262479D01*
X174119611Y-67261180D01*
X175227591Y-66913550D01*
X175231542Y-66912383D01*
X176350653Y-66602365D01*
X176354584Y-66601347D01*
X177483509Y-66329308D01*
X177487549Y-66328406D01*
X178625054Y-66094643D01*
X178629080Y-66093887D01*
X179773755Y-65898688D01*
X179777853Y-65898060D01*
X180928482Y-65741631D01*
X180932631Y-65741138D01*
X182087913Y-65623658D01*
X182091971Y-65623314D01*
X183250551Y-65544920D01*
X183254718Y-65544709D01*
X184415220Y-65505491D01*
X184419408Y-65505421D01*
X185580592Y-65505421D01*
X185584779Y-65505491D01*
G37*
%TD.AperFunction*%
%TD*%
M02*
