M48
; DRILL file KiCad 10.0.6 date 2026-10-09T21:29:33
; FORMAT={-:-/ absolute / metric / decimal}
; #@! TF.CreationDate,2026-10-09T21:29:33-04:00
; #@! TF.GenerationSoftware,Kicad,Pcbnew,10.0.6
; #@! TF.FileFunction,Plated,1,2,PTH
FMAT,2
METRIC
; #@! TA.AperFunction,Plated,PTH,ComponentDrill
T1C0.700
; #@! TA.AperFunction,Plated,PTH,ComponentDrill
T2C0.800
; #@! TA.AperFunction,Plated,PTH,ComponentDrill
T3C0.889
; #@! TA.AperFunction,Plated,PTH,ComponentDrill
T4C1.000
; #@! TA.AperFunction,Plated,PTH,ComponentDrill
T5C1.500
%
G90
G05
T1
X156.19Y-105.0
X163.81Y-105.0
T2
X160.0Y-114.96
X160.0Y-117.5
X160.0Y-120.04
X160.0Y-122.58
T3
X177.38Y-108.38
X177.38Y-123.62
X179.92Y-108.38
X179.92Y-123.62
X182.46Y-108.38
X182.46Y-123.62
X185.0Y-108.38
X185.0Y-123.62
X187.54Y-108.38
X187.54Y-123.62
X190.08Y-108.38
X190.08Y-123.62
X192.62Y-108.38
X192.62Y-123.62
T4
X181.19Y-74.492
X183.73Y-74.492
X186.27Y-74.492
X188.81Y-74.492
X210.0Y-105.8
X210.0Y-108.34
X210.0Y-110.88
X210.0Y-113.42
X210.0Y-115.96
X210.0Y-118.5
X210.0Y-121.04
X210.0Y-123.58
T5
X136.69Y-107.46
X143.04Y-104.92
X225.69Y-107.46
X232.04Y-104.92
M30
