%TF.GenerationSoftware,KiCad,Pcbnew,10.0.6*%
%TF.CreationDate,2026-10-09T21:29:11-04:00*%
%TF.ProjectId,schematic,73636865-6d61-4746-9963-2e6b69636164,rev?*%
%TF.SameCoordinates,Original*%
%TF.FileFunction,Soldermask,Top*%
%TF.FilePolarity,Negative*%
%FSLAX46Y46*%
G04 Gerber Fmt 4.6, Leading zero omitted, Abs format (unit mm)*
G04 Created by KiCad (PCBNEW 10.0.6) date 2026-10-09 21:29:11*
%MOMM*%
%LPD*%
G01*
G04 APERTURE LIST*
G04 Aperture macros list*
%AMRoundRect*
0 Rectangle with rounded corners*
0 $1 Rounding radius*
0 $2 $3 $4 $5 $6 $7 $8 $9 X,Y pos of 4 corners*
0 Add a 4 corners polygon primitive as box body*
4,1,4,$2,$3,$4,$5,$6,$7,$8,$9,$2,$3,0*
0 Add four circle primitives for the rounded corners*
1,1,$1+$1,$2,$3*
1,1,$1+$1,$4,$5*
1,1,$1+$1,$6,$7*
1,1,$1+$1,$8,$9*
0 Add four rect primitives between the rounded corners*
20,1,$1+$1,$2,$3,$4,$5,0*
20,1,$1+$1,$4,$5,$6,$7,0*
20,1,$1+$1,$6,$7,$8,$9,0*
20,1,$1+$1,$8,$9,$2,$3,0*%
G04 Aperture macros list end*
%ADD10C,1.700000*%
%ADD11C,4.000000*%
%ADD12C,2.200000*%
%ADD13O,3.800000X2.900000*%
%ADD14R,1.700000X1.700000*%
%ADD15O,1.700000X1.700000*%
%ADD16C,1.400000*%
%ADD17R,1.500000X1.500000*%
%ADD18C,1.500000*%
%ADD19RoundRect,0.152400X-0.609600X1.063600X-0.609600X-1.063600X0.609600X-1.063600X0.609600X1.063600X0*%
%ADD20C,1.524000*%
%ADD21RoundRect,0.152400X0.609600X-1.063600X0.609600X1.063600X-0.609600X1.063600X-0.609600X-1.063600X0*%
G04 APERTURE END LIST*
D10*
%TO.C,SW1*%
X135420000Y-110000000D03*
D11*
X140500000Y-110000000D03*
D10*
X145580000Y-110000000D03*
D12*
X143040000Y-104920000D03*
X136690000Y-107460000D03*
%TD*%
D13*
%TO.C,J1*%
X173824000Y-75127000D03*
X173824000Y-98241000D03*
X196176000Y-75127000D03*
X196176000Y-98241000D03*
D14*
X181190000Y-74492000D03*
D15*
X183730000Y-74492000D03*
X186270000Y-74492000D03*
X188810000Y-74492000D03*
%TD*%
D16*
%TO.C,R1*%
X156190000Y-105000000D03*
X163810000Y-105000000D03*
%TD*%
D10*
%TO.C,SW2*%
X224420000Y-110000000D03*
D11*
X229500000Y-110000000D03*
D10*
X234580000Y-110000000D03*
D12*
X232040000Y-104920000D03*
X225690000Y-107460000D03*
%TD*%
D17*
%TO.C,U2*%
X160000000Y-114960000D03*
D18*
X160000000Y-117500000D03*
X160000000Y-120040000D03*
X160000000Y-122580000D03*
%TD*%
D14*
%TO.C,J2*%
X210000000Y-105800000D03*
D10*
X210000000Y-108340000D03*
X210000000Y-110880000D03*
X210000000Y-113420000D03*
X210000000Y-115960000D03*
X210000000Y-118500000D03*
X210000000Y-121040000D03*
X210000000Y-123580000D03*
%TD*%
D19*
%TO.C,U1*%
X177380000Y-124455000D03*
D20*
X177380000Y-123620000D03*
D19*
X179920000Y-124455000D03*
D20*
X179920000Y-123620000D03*
D19*
X182460000Y-124455000D03*
D20*
X182460000Y-123620000D03*
D19*
X185000000Y-124455000D03*
D20*
X185000000Y-123620000D03*
D19*
X187540000Y-124455000D03*
D20*
X187540000Y-123620000D03*
D19*
X190080000Y-124455000D03*
D20*
X190080000Y-123620000D03*
D19*
X192620000Y-124455000D03*
D20*
X192620000Y-123620000D03*
X192620000Y-108380000D03*
D21*
X192620000Y-107545000D03*
D20*
X190080000Y-108380000D03*
D21*
X190080000Y-107545000D03*
D20*
X187540000Y-108380000D03*
D21*
X187540000Y-107545000D03*
D20*
X185000000Y-108380000D03*
D21*
X185000000Y-107545000D03*
D20*
X182460000Y-108380000D03*
D21*
X182460000Y-107545000D03*
D20*
X179920000Y-108380000D03*
D21*
X179920000Y-107545000D03*
D20*
X177380000Y-108380000D03*
D21*
X177380000Y-107545000D03*
%TD*%
M02*
